<?xml version="1.0" encoding="iso-8859-1"?>
<!-- Uploaded to: SVG Repo, www.svgrepo.com, Generator: SVG Repo Mixer Tools -->
<svg width="101" height="95" viewBox="0 0 101 95" fill="none" xmlns="http://www.w3.org/2000/svg">
<path d="M53.7652 14.0789C35.4826 14.0789 20.6084 28.9528 20.6084 47.2355C20.6084 65.5181 35.4826 80.3923 53.7652 80.3923C72.0479 80.3923 86.922 65.5181 86.922 47.2355C86.922 28.9528 72.0479 14.0789 53.7652 14.0789ZM53.7652 78.6322C36.453 78.6322 22.3687 64.5477 22.3687 47.2357C22.3687 29.9237 36.453 15.8393 53.7652 15.8393C71.0774 15.8393 85.1618 29.9239 85.1618 47.2357C85.1618 64.5477 71.0774 78.6322 53.7652 78.6322Z" fill="black"/>
<path d="M53.7639 24.9138C66.0723 24.9138 76.0858 34.9274 76.0858 47.2355C76.0858 47.7216 76.4799 48.1157 76.966 48.1157C77.452 48.1157 77.8461 47.7216 77.8461 47.2355C77.8461 33.9568 67.0429 23.1536 53.7639 23.1536C53.2779 23.1536 52.8838 23.5477 52.8838 24.0337C52.8838 24.5197 53.2779 24.9138 53.7639 24.9138Z" fill="black"/>
<path d="M25.9294 23.8814C28.1693 23.8814 29.9917 22.0588 29.9917 19.8191C29.9917 17.5795 28.1693 15.7571 25.9294 15.7571C23.6896 15.7571 21.8672 17.5795 21.8672 19.8191C21.8672 22.0588 23.6898 23.8814 25.9294 23.8814ZM25.9294 17.5173C27.1987 17.5173 28.2314 18.5499 28.2314 19.8191C28.2314 21.0886 27.1989 22.1211 25.9294 22.1211C24.6602 22.1211 23.6274 21.0886 23.6274 19.8191C23.6277 18.5499 24.6602 17.5173 25.9294 17.5173Z" fill="black"/>
<path d="M25.9294 71.1047C23.6896 71.1047 21.8672 72.9273 21.8672 75.1672C21.8672 77.4069 23.6896 79.2292 25.9294 79.2292C28.1693 79.2292 29.9917 77.4069 29.9917 75.1672C29.9917 72.9273 28.1693 71.1047 25.9294 71.1047ZM25.9294 77.4692C24.6602 77.4692 23.6274 76.4367 23.6274 75.1674C23.6274 73.8979 24.66 72.8652 25.9294 72.8652C27.1987 72.8652 28.2314 73.8979 28.2314 75.1674C28.2314 76.4367 27.1989 77.4692 25.9294 77.4692Z" fill="black"/>
<path d="M82.0505 23.8814C84.2904 23.8814 86.1126 22.0588 86.1126 19.8191C86.1126 17.5795 84.2904 15.7571 82.0505 15.7571C79.8107 15.7571 77.9883 17.5795 77.9883 19.8191C77.9883 22.0588 79.8105 23.8814 82.0505 23.8814ZM82.0505 17.5173C83.3198 17.5173 84.3523 18.5499 84.3523 19.8191C84.3523 21.0886 83.3198 22.1211 82.0505 22.1211C80.7813 22.1211 79.7485 21.0886 79.7485 19.8191C79.7483 18.5499 80.7811 17.5173 82.0505 17.5173Z" fill="black"/>
<path d="M82.0505 71.1047C79.8107 71.1047 77.9883 72.9273 77.9883 75.1672C77.9883 77.4069 79.8107 79.2292 82.0505 79.2292C84.2904 79.2292 86.1126 77.4069 86.1126 75.1672C86.1126 72.9273 84.2902 71.1047 82.0505 71.1047ZM82.0505 77.4692C80.7813 77.4692 79.7485 76.4367 79.7485 75.1674C79.7485 73.8979 80.7813 72.8652 82.0505 72.8652C83.3198 72.8652 84.3523 73.8979 84.3523 75.1674C84.3523 76.4367 83.3196 77.4692 82.0505 77.4692Z" fill="black"/>
<path d="M87.1652 13.835C78.2434 4.9136 66.3816 0 53.7644 0C36.6092 0 20.847 9.27614 12.4935 24.2449H3.90135C1.75011 24.2449 0 25.9951 0 28.1463V29.4891C0 31.3495 1.30963 32.9073 3.05477 33.2956V63.8186C1.30963 64.2069 0 65.7644 0 67.6251V68.9677C0 71.1189 1.75011 72.869 3.90135 72.869H12.6966C13.1377 72.869 13.5602 72.7922 13.9559 72.6568C18.0807 79.1016 23.7457 84.4985 30.3899 88.2903C37.4757 92.3339 45.5583 94.4715 53.7642 94.4715C66.3813 94.4715 78.2432 89.5579 87.165 80.6363C96.0866 71.7147 101 59.8529 101 47.2358C101 34.6187 96.0868 22.7568 87.1652 13.835ZM1.76026 29.4891V28.1463C1.76026 26.9657 2.72074 26.0052 3.90135 26.0052H12.6966C12.7704 26.0052 12.8432 26.0091 12.9151 26.0164C12.9161 26.0164 12.9172 26.0168 12.9182 26.0168C13.9951 26.128 14.8379 27.0404 14.8379 28.1463V29.4891C14.8379 30.6697 13.8772 31.6304 12.6966 31.6304H3.90135C2.72074 31.6304 1.76026 30.6699 1.76026 29.4891ZM7.08369 52.8292C7.56972 52.8292 7.96382 52.4351 7.96382 51.9491V33.3906H11.7832V63.7236H4.81503V33.3906H6.20335V51.9491C6.20356 52.4351 6.59744 52.8292 7.08369 52.8292ZM14.8379 68.9677C14.8379 69.7354 14.4304 70.408 13.8217 70.7859C13.4943 70.9893 13.1096 71.1088 12.6966 71.1088H3.90135C2.72074 71.1088 1.76026 70.1483 1.76026 68.9677V67.6251C1.76026 66.4445 2.72074 65.4838 3.90135 65.4838H12.6966C13.8772 65.4838 14.8379 66.4445 14.8379 67.6251V68.9677ZM53.7644 92.7111C38.1284 92.7111 23.8629 84.8835 15.447 71.7315C16.1575 71.0245 16.5982 70.0466 16.5982 68.9675V67.6249C16.5982 65.7646 15.2883 64.2067 13.5434 63.8186V33.2954C15.2886 32.9073 16.5982 31.3495 16.5982 29.4891V28.1463C16.5982 26.5728 15.6599 25.217 14.315 24.6007C22.4275 10.4843 37.4411 1.76026 53.7644 1.76026C78.8396 1.76026 99.2397 22.1606 99.2397 47.2358C99.2397 72.3109 78.8396 92.7111 53.7644 92.7111Z" fill="black"/>
<path d="M74.2528 65.9848L74.1037 61.2296C74.0246 58.7072 72.9017 56.2939 70.9822 54.5205C69.0626 52.7471 66.5036 51.759 63.868 51.7734L43.9932 51.8821C41.3576 51.8965 38.8614 52.9123 37.0537 54.7061C35.246 56.4998 34.2749 58.9246 34.354 61.447L34.5031 66.2022" fill="black"/>
<path d="M53.6324 42.3172C59.1207 42.2872 63.4363 38.0048 63.2716 32.7523C63.1069 27.4998 58.5242 23.2661 53.036 23.2961C47.5477 23.3261 43.2321 27.6085 43.3968 32.861C43.5615 38.1135 48.1441 42.3472 53.6324 42.3172Z" fill="black"/>
<path d="M74.2528 65.9848L74.1037 61.2296C74.0246 58.7072 72.9017 56.2939 70.9822 54.5205C69.0626 52.7471 66.5036 51.759 63.868 51.7734L43.9932 51.8821C41.3576 51.8965 38.8614 52.9123 37.0537 54.7061C35.246 56.4998 34.2749 58.9246 34.354 61.447L34.5031 66.2022M63.2716 32.7523C63.4363 38.0048 59.1207 42.2872 53.6324 42.3172C48.1441 42.3472 43.5615 38.1135 43.3968 32.861C43.2321 27.6085 47.5477 23.3261 53.036 23.2961C58.5242 23.2661 63.1069 27.4998 63.2716 32.7523Z" stroke="black" stroke-width="4" stroke-linecap="round" stroke-linejoin="round"/>
</svg>
