<svg width="64" height="64" viewBox="0 0 64 64" fill="none" xmlns="http://www.w3.org/2000/svg">
<g clip-path="url(#clip0_48_343)">
<circle cx="32" cy="32" r="32" fill="#FBD756"/>
<mask id="mask0_48_343" style="mask-type:alpha" maskUnits="userSpaceOnUse" x="0" y="0" width="64" height="64">
<circle cx="32" cy="32" r="32" fill="#FBD756"/>
</mask>
<g mask="url(#mask0_48_343)">
<path d="M78.1383 30.1391C77.4007 29.8059 76.5133 30.0919 76.1554 30.7772C74.7171 33.531 71.7796 35.2414 68.4895 35.2414C65.1995 35.2414 62.2622 33.5309 60.8235 30.7772C60.5754 30.3022 60.0572 30.0006 59.4888 30.0006C58.9207 30.0006 58.4025 30.3024 58.1542 30.7772C56.7157 33.531 53.778 35.2414 50.4884 35.2414C47.1985 35.2414 44.2608 33.5309 42.8223 30.7772C42.574 30.3022 42.0558 30.0006 41.4877 30.0006C40.9195 30.0006 40.4011 30.3024 40.153 30.7772C38.7145 33.531 35.7768 35.2414 32.487 35.2414C29.1971 35.2414 26.2596 33.5309 24.8211 30.7772C24.5728 30.3022 24.0546 30.0006 23.4865 30.0006C22.9182 30.0006 22.3999 30.3024 22.1517 30.7772C20.7131 33.531 17.7757 35.2414 14.4858 35.2414C11.1959 35.2414 8.25848 33.5309 6.81995 30.7772C6.57166 30.3022 6.05345 30.0006 5.4852 30.0006C4.91701 30.0006 4.39875 30.3024 4.15051 30.7772C2.71196 33.531 -0.225589 35.2414 -3.51543 35.2414C-6.80545 35.2414 -9.74301 33.5309 -11.1814 30.7772C-11.5393 30.092 -12.4269 29.8066 -13.1641 30.1391C-13.9012 30.4719 -14.2086 31.297 -13.8505 31.9822C-11.9409 35.6378 -7.88409 38 -3.51543 38C0.00903124 38 3.33028 36.4628 5.4852 33.9492C7.64001 36.4628 10.9611 38 14.4856 38C18.01 38 21.3314 36.4628 23.4863 33.9492C25.641 36.4628 28.9623 38 32.4868 38C36.0112 38 39.3326 36.4628 41.4875 33.9492C43.6421 36.4628 46.9637 38 50.4881 38C54.0126 38 57.3337 36.4628 59.4886 33.9492C61.6433 36.4628 64.9647 38 68.4891 38C72.8578 38 76.9146 35.6378 78.8242 31.9822C79.1826 31.297 78.8752 30.4717 78.1383 30.1391Z" fill="#0578D6"/>
<path d="M-2 36.5L-12 33.5L-10.5 73.5L69 72.5V36.5L62.5 34.5L59 32L56 34.5L51 36.5L46 35.5L41.5 32L39.5 33.5L35.5 36.5L28 35.5L22.5 32L19.5 35.5L14 36.5L9 35.5L5 32L3 33.5L-2 36.5Z" fill="#0578D6"/>
</g>
</g>
<defs>
<clipPath id="clip0_48_343">
<rect width="64" height="64" fill="white"/>
</clipPath>
</defs>
</svg>
