<svg width="1397" height="10" viewBox="0 0 1397 10" fill="none" xmlns="http://www.w3.org/2000/svg">
<path d="M230.346 0.173891C228.502 -0.242626 226.283 0.114819 225.388 0.97156C221.793 4.41381 214.449 6.55178 206.224 6.55178C197.999 6.55178 190.656 4.41358 187.059 0.97156C186.438 0.377771 185.143 0.000692376 183.722 0.000692376C182.302 0.000692376 181.006 0.377938 180.386 0.97156C176.789 4.41381 169.445 6.55178 161.221 6.55178C152.996 6.55178 145.652 4.41358 142.056 0.97156C141.435 0.377771 140.139 0.000692376 138.719 0.000692376C137.299 0.000692376 136.003 0.377938 135.383 0.97156C131.786 4.41381 124.442 6.55178 116.217 6.55178C107.993 6.55178 100.649 4.41358 97.0528 0.97156C96.4321 0.377771 95.1366 0.000692376 93.7162 0.000692376C92.2954 0.000692376 90.9999 0.377938 90.3791 0.97156C86.7828 4.41381 79.4392 6.55178 71.2145 6.55178C62.9899 6.55178 55.6462 4.41358 52.0499 0.97156C51.4292 0.377771 50.1336 0.000692376 48.713 0.000692376C47.2925 0.000692376 45.9969 0.377938 45.3763 0.97156C41.7799 4.41381 34.436 6.55178 26.2114 6.55178C17.9864 6.55178 10.6425 4.41358 7.04658 0.97156C6.15181 0.115042 3.93281 -0.241789 2.08966 0.173891C0.247003 0.58985 -0.521569 1.62124 0.373658 2.47776C5.14763 7.04729 15.2898 10 26.2114 10C35.0226 10 43.3257 8.07851 48.713 4.93648C54.1 8.07851 62.4029 10 71.214 10C80.0251 10 88.3285 8.07851 93.7157 4.93648C99.1024 8.07851 107.406 10 116.217 10C125.028 10 133.331 8.07851 138.719 4.93648C144.105 8.07851 152.409 10 161.22 10C170.031 10 178.334 8.07851 183.722 4.93648C189.108 8.07851 197.412 10 206.223 10C217.145 10 227.286 7.04729 232.061 2.47776C232.957 1.62124 232.188 0.589627 230.346 0.173891Z" fill="#0578D6"/>
<path d="M463.179 0.173891C461.335 -0.242626 459.116 0.114819 458.221 0.97156C454.626 4.41381 447.282 6.55178 439.057 6.55178C430.832 6.55178 423.489 4.41358 419.892 0.97156C419.271 0.377771 417.976 0.000692376 416.555 0.000692376C415.135 0.000692376 413.839 0.377938 413.219 0.97156C409.622 4.41381 402.278 6.55178 394.054 6.55178C385.829 6.55178 378.485 4.41358 374.889 0.97156C374.268 0.377771 372.973 0.000692376 371.552 0.000692376C370.132 0.000692376 368.836 0.377938 368.216 0.97156C364.619 4.41381 357.275 6.55178 349.05 6.55178C340.826 6.55178 333.482 4.41358 329.886 0.97156C329.265 0.377771 327.97 0.000692376 326.549 0.000692376C325.128 0.000692376 323.833 0.377938 323.212 0.97156C319.616 4.41381 312.272 6.55178 304.048 6.55178C295.823 6.55178 288.479 4.41358 284.883 0.97156C284.262 0.377771 282.967 0.000692376 281.546 0.000692376C280.126 0.000692376 278.83 0.377938 278.209 0.97156C274.613 4.41381 267.269 6.55178 259.044 6.55178C250.819 6.55178 243.475 4.41358 239.88 0.97156C238.985 0.115042 236.766 -0.241789 234.923 0.173891C233.08 0.58985 232.311 1.62124 233.207 2.47776C237.981 7.04729 248.123 10 259.044 10C267.856 10 276.159 8.07851 281.546 4.93648C286.933 8.07851 295.236 10 304.047 10C312.858 10 321.161 8.07851 326.549 4.93648C331.935 8.07851 340.239 10 349.05 10C357.861 10 366.164 8.07851 371.552 4.93648C376.938 8.07851 385.242 10 394.053 10C402.864 10 411.167 8.07851 416.555 4.93648C421.941 8.07851 430.245 10 439.056 10C449.978 10 460.12 7.04729 464.894 2.47776C465.79 1.62124 465.021 0.589627 463.179 0.173891Z" fill="#0578D6"/>
<path d="M696.013 0.173891C694.169 -0.242626 691.95 0.114819 691.055 0.97156C687.46 4.41381 680.116 6.55178 671.891 6.55178C663.666 6.55178 656.322 4.41358 652.726 0.97156C652.105 0.377771 650.81 0.000692376 649.389 0.000692376C647.969 0.000692376 646.673 0.377938 646.053 0.97156C642.456 4.41381 635.112 6.55178 626.888 6.55178C618.663 6.55178 611.319 4.41358 607.723 0.97156C607.102 0.377771 605.806 0.000692376 604.386 0.000692376C602.966 0.000692376 601.67 0.377938 601.05 0.97156C597.453 4.41381 590.109 6.55178 581.884 6.55178C573.66 6.55178 566.316 4.41358 562.72 0.97156C562.099 0.377771 560.804 0.000692376 559.383 0.000692376C557.962 0.000692376 556.667 0.377938 556.046 0.97156C552.45 4.41381 545.106 6.55178 536.882 6.55178C528.657 6.55178 521.313 4.41358 517.717 0.97156C517.096 0.377771 515.801 0.000692376 514.38 0.000692376C512.96 0.000692376 511.664 0.377938 511.043 0.97156C507.447 4.41381 500.103 6.55178 491.878 6.55178C483.653 6.55178 476.309 4.41358 472.714 0.97156C471.819 0.115042 469.6 -0.241789 467.757 0.173891C465.914 0.58985 465.145 1.62124 466.041 2.47776C470.815 7.04729 480.957 10 491.878 10C500.69 10 508.993 8.07851 514.38 4.93648C519.767 8.07851 528.07 10 536.881 10C545.692 10 553.995 8.07851 559.383 4.93648C564.769 8.07851 573.073 10 581.884 10C590.695 10 598.998 8.07851 604.386 4.93648C609.772 8.07851 618.076 10 626.887 10C635.698 10 644.001 8.07851 649.389 4.93648C654.775 8.07851 663.079 10 671.89 10C682.812 10 692.953 7.04729 697.728 2.47776C698.624 1.62124 697.855 0.589627 696.013 0.173891Z" fill="#0578D6"/>
<path d="M928.846 0.173891C927.002 -0.242626 924.783 0.114819 923.888 0.97156C920.293 4.41381 912.949 6.55178 904.724 6.55178C896.499 6.55178 889.156 4.41358 885.559 0.97156C884.938 0.377771 883.643 0.000692376 882.222 0.000692376C880.802 0.000692376 879.506 0.377938 878.886 0.97156C875.289 4.41381 867.945 6.55178 859.721 6.55178C851.496 6.55178 844.152 4.41358 840.556 0.97156C839.935 0.377771 838.639 0.000692376 837.219 0.000692376C835.799 0.000692376 834.503 0.377938 833.883 0.97156C830.286 4.41381 822.942 6.55178 814.717 6.55178C806.493 6.55178 799.149 4.41358 795.553 0.97156C794.932 0.377771 793.637 0.000692376 792.216 0.000692376C790.795 0.000692376 789.5 0.377938 788.879 0.97156C785.283 4.41381 777.939 6.55178 769.715 6.55178C761.49 6.55178 754.146 4.41358 750.55 0.97156C749.929 0.377771 748.634 0.000692376 747.213 0.000692376C745.793 0.000692376 744.497 0.377938 743.876 0.97156C740.28 4.41381 732.936 6.55178 724.711 6.55178C716.486 6.55178 709.142 4.41358 705.547 0.97156C704.652 0.115042 702.433 -0.241789 700.59 0.173891C698.747 0.58985 697.978 1.62124 698.874 2.47776C703.648 7.04729 713.79 10 724.711 10C733.523 10 741.826 8.07851 747.213 4.93648C752.6 8.07851 760.903 10 769.714 10C778.525 10 786.828 8.07851 792.216 4.93648C797.602 8.07851 805.906 10 814.717 10C823.528 10 831.831 8.07851 837.219 4.93648C842.605 8.07851 850.909 10 859.72 10C868.531 10 876.834 8.07851 882.222 4.93648C887.608 8.07851 895.912 10 904.723 10C915.645 10 925.786 7.04729 930.561 2.47776C931.457 1.62124 930.688 0.589627 928.846 0.173891Z" fill="#0578D6"/>
<path d="M1161.68 0.173891C1159.83 -0.242626 1157.62 0.114819 1156.72 0.97156C1153.13 4.41381 1145.78 6.55178 1137.56 6.55178C1129.33 6.55178 1121.99 4.41358 1118.39 0.97156C1117.77 0.377771 1116.48 0.000692376 1115.06 0.000692376C1113.63 0.000692376 1112.34 0.377938 1111.72 0.97156C1108.12 4.41381 1100.78 6.55178 1092.55 6.55178C1084.33 6.55178 1076.99 4.41358 1073.39 0.97156C1072.77 0.377771 1071.47 0.000692376 1070.05 0.000692376C1068.63 0.000692376 1067.34 0.377938 1066.72 0.97156C1063.12 4.41381 1055.78 6.55178 1047.55 6.55178C1039.33 6.55178 1031.98 4.41358 1028.39 0.97156C1027.77 0.377771 1026.47 0.000692376 1025.05 0.000692376C1023.63 0.000692376 1022.33 0.377938 1021.71 0.97156C1018.12 4.41381 1010.77 6.55178 1002.55 6.55178C994.323 6.55178 986.979 4.41358 983.383 0.97156C982.762 0.377771 981.467 0.000692376 980.046 0.000692376C978.626 0.000692376 977.33 0.377938 976.709 0.97156C973.113 4.41381 965.769 6.55178 957.544 6.55178C949.319 6.55178 941.975 4.41358 938.38 0.97156C937.485 0.115042 935.266 -0.241789 933.423 0.173891C931.58 0.58985 930.811 1.62124 931.707 2.47776C936.481 7.04729 946.623 10 957.544 10C966.356 10 974.659 8.07851 980.046 4.93648C985.433 8.07851 993.736 10 1002.55 10C1011.36 10 1019.66 8.07851 1025.05 4.93648C1030.44 8.07851 1038.74 10 1047.55 10C1056.36 10 1064.66 8.07851 1070.05 4.93648C1075.44 8.07851 1083.74 10 1092.55 10C1101.36 10 1109.67 8.07851 1115.05 4.93648C1120.44 8.07851 1128.74 10 1137.56 10C1148.48 10 1158.62 7.04729 1163.39 2.47776C1164.29 1.62124 1163.52 0.589627 1161.68 0.173891Z" fill="#0578D6"/>
<path d="M1394.51 0.173891C1392.67 -0.242626 1390.45 0.114819 1389.55 0.97156C1385.96 4.41381 1378.62 6.55178 1370.39 6.55178C1362.16 6.55178 1354.82 4.41358 1351.22 0.97156C1350.6 0.377771 1349.31 0.000692376 1347.89 0.000692376C1346.47 0.000692376 1345.17 0.377938 1344.55 0.97156C1340.96 4.41381 1333.61 6.55178 1325.39 6.55178C1317.16 6.55178 1309.82 4.41358 1306.22 0.97156C1305.6 0.377771 1304.31 0.000692376 1302.89 0.000692376C1301.46 0.000692376 1300.17 0.377938 1299.55 0.97156C1295.95 4.41381 1288.61 6.55178 1280.38 6.55178C1272.16 6.55178 1264.82 4.41358 1261.22 0.97156C1260.6 0.377771 1259.3 0.000692376 1257.88 0.000692376C1256.46 0.000692376 1255.17 0.377938 1254.55 0.97156C1250.95 4.41381 1243.61 6.55178 1235.38 6.55178C1227.16 6.55178 1219.81 4.41358 1216.22 0.97156C1215.6 0.377771 1214.3 0.000692376 1212.88 0.000692376C1211.46 0.000692376 1210.16 0.377938 1209.54 0.97156C1205.95 4.41381 1198.6 6.55178 1190.38 6.55178C1182.15 6.55178 1174.81 4.41358 1171.21 0.97156C1170.32 0.115042 1168.1 -0.241789 1166.26 0.173891C1164.41 0.58985 1163.64 1.62124 1164.54 2.47776C1169.31 7.04729 1179.46 10 1190.38 10C1199.19 10 1207.49 8.07851 1212.88 4.93648C1218.27 8.07851 1226.57 10 1235.38 10C1244.19 10 1252.49 8.07851 1257.88 4.93648C1263.27 8.07851 1271.57 10 1280.38 10C1289.19 10 1297.5 8.07851 1302.88 4.93648C1308.27 8.07851 1316.58 10 1325.39 10C1334.2 10 1342.5 8.07851 1347.89 4.93648C1353.27 8.07851 1361.58 10 1370.39 10C1381.31 10 1391.45 7.04729 1396.23 2.47776C1397.12 1.62124 1396.35 0.589627 1394.51 0.173891Z" fill="#0578D6"/>
</svg>
