<svg width="1440" height="126" viewBox="0 0 1440 126" fill="none" xmlns="http://www.w3.org/2000/svg">
<g clip-path="url(#clip0_29_1561)">
<rect width="1440" height="126" fill="#EDF1F6"/>
<rect y="61" width="1440" height="70" fill="#056DBD"/>
<mask id="mask0_29_1561" style="mask-type:alpha" maskUnits="userSpaceOnUse" x="34" y="24" width="187" height="68">
<path d="M50.1797 48.6406V24.875H56.625V48.6406C56.625 50.9062 56.1328 52.8516 55.1484 54.4766C54.1641 56.0859 52.8203 57.3203 51.1172 58.1797C49.4141 59.0391 47.4922 59.4688 45.3516 59.4688C43.1484 59.4688 41.1953 59.1016 39.4922 58.3672C37.7891 57.6172 36.4531 56.4766 35.4844 54.9453C34.5312 53.4141 34.0547 51.4688 34.0547 49.1094H40.5234C40.5234 50.3906 40.7188 51.4219 41.1094 52.2031C41.5 52.9844 42.0547 53.5469 42.7734 53.8906C43.5078 54.2344 44.3672 54.4062 45.3516 54.4062C46.3047 54.4062 47.1406 54.1875 47.8594 53.75C48.5938 53.2969 49.1641 52.6406 49.5703 51.7812C49.9766 50.9219 50.1797 49.875 50.1797 48.6406ZM86.5312 44.75V45.9688C86.5312 48.0469 86.2266 49.9141 85.6172 51.5703C85.0234 53.2109 84.1719 54.6172 83.0625 55.7891C81.9531 56.9453 80.6328 57.8359 79.1016 58.4609C77.5703 59.0703 75.875 59.375 74.0156 59.375C72.1562 59.375 70.4609 59.0703 68.9297 58.4609C67.3984 57.8359 66.0703 56.9453 64.9453 55.7891C63.8203 54.6172 62.9531 53.2109 62.3438 51.5703C61.7344 49.9141 61.4297 48.0469 61.4297 45.9688V44.75C61.4297 42.6719 61.7344 40.8125 62.3438 39.1719C62.9531 37.5156 63.8125 36.1016 64.9219 34.9297C66.0312 33.7578 67.3516 32.8672 68.8828 32.2578C70.4141 31.6328 72.1094 31.3203 73.9688 31.3203C75.8281 31.3203 77.5234 31.6328 79.0547 32.2578C80.5859 32.8672 81.9062 33.7578 83.0156 34.9297C84.1406 36.1016 85.0078 37.5156 85.6172 39.1719C86.2266 40.8125 86.5312 42.6719 86.5312 44.75ZM80.3203 45.9688V44.7031C80.3203 43.3438 80.1719 42.1406 79.875 41.0938C79.5938 40.0312 79.1797 39.1406 78.6328 38.4219C78.1016 37.7031 77.4375 37.1562 76.6406 36.7812C75.8594 36.3906 74.9688 36.1953 73.9688 36.1953C72.9688 36.1953 72.0703 36.3906 71.2734 36.7812C70.4922 37.1562 69.8281 37.7031 69.2812 38.4219C68.75 39.1406 68.3438 40.0312 68.0625 41.0938C67.7812 42.1406 67.6406 43.3438 67.6406 44.7031V45.9688C67.6406 47.3281 67.7812 48.5391 68.0625 49.6016C68.3438 50.6484 68.7578 51.5391 69.3047 52.2734C69.8672 53.0078 70.5391 53.5703 71.3203 53.9609C72.1172 54.3359 73.0156 54.5234 74.0156 54.5234C75.0156 54.5234 75.9062 54.3359 76.6875 53.9609C77.4688 53.5703 78.125 53.0078 78.6562 52.2734C79.2031 51.5391 79.6172 50.6484 79.8984 49.6016C80.1797 48.5391 80.3203 47.3281 80.3203 45.9688ZM106.945 31.6953H113.18V49.5781C113.18 51.6875 112.695 53.4766 111.727 54.9453C110.773 56.3984 109.445 57.5 107.742 58.25C106.055 59 104.102 59.375 101.883 59.375C99.6641 59.375 97.7031 59 96 58.25C94.2969 57.5 92.9609 56.3984 91.9922 54.9453C91.0391 53.4766 90.5625 51.6875 90.5625 49.5781V31.6953H96.75V49.5781C96.75 50.7188 96.9531 51.6562 97.3594 52.3906C97.7812 53.125 98.375 53.6641 99.1406 54.0078C99.9062 54.3516 100.82 54.5234 101.883 54.5234C102.961 54.5234 103.875 54.3516 104.625 54.0078C105.375 53.6641 105.945 53.125 106.336 52.3906C106.742 51.6562 106.945 50.7188 106.945 49.5781V31.6953ZM118.078 31.6953H129.164C130.836 31.6953 132.344 31.875 133.688 32.2344C135.047 32.5781 136.195 33.1016 137.133 33.8047C138.086 34.4922 138.812 35.3516 139.312 36.3828C139.812 37.3984 140.062 38.5781 140.062 39.9219C140.062 41.4531 139.797 42.75 139.266 43.8125C138.734 44.875 137.992 45.75 137.039 46.4375C136.086 47.1094 134.969 47.6641 133.688 48.1016L131.672 49.25H122.086L122.039 44.3516H129.234C130.25 44.3516 131.102 44.1953 131.789 43.8828C132.477 43.5703 132.992 43.125 133.336 42.5469C133.68 41.9688 133.852 41.2891 133.852 40.5078C133.852 39.6953 133.672 39 133.312 38.4219C132.969 37.8281 132.445 37.375 131.742 37.0625C131.055 36.75 130.195 36.5938 129.164 36.5938H124.312V59H118.078V31.6953ZM134.461 59L127.805 46.9297L134.367 46.8828L141.141 58.7188V59H134.461ZM168.703 31.6953V59H162.492L150.938 40.8828V59H144.727V31.6953H150.938L162.492 49.8125V31.6953H168.703ZM193.617 54.125V59H177.961V54.125H193.617ZM180.047 31.6953V59H173.836V31.6953H180.047ZM191.602 42.4531V47.3281H177.961V42.4531H191.602ZM193.617 31.6953V36.5938H177.961V31.6953H193.617ZM205.898 46.6953L213.328 31.6953H220.078L210.023 50H206.602L205.898 46.6953ZM201.281 31.6953L208.758 46.8359L207.984 50H204.586L194.531 31.6953H201.281ZM210.328 46.1797V59H204.117V46.1797H210.328ZM56.2266 79.7734H62.6719C62.5 82.0547 61.8672 84.0781 60.7734 85.8438C59.6797 87.5938 58.1562 88.9688 56.2031 89.9688C54.25 90.9688 51.8828 91.4688 49.1016 91.4688C46.9609 91.4688 45.0312 91.0938 43.3125 90.3438C41.6094 89.5781 40.1484 88.4922 38.9297 87.0859C37.7266 85.6641 36.8047 83.9609 36.1641 81.9766C35.5234 79.9766 35.2031 77.7344 35.2031 75.25V72.6484C35.2031 70.1641 35.5312 67.9219 36.1875 65.9219C36.8438 63.9219 37.7812 62.2188 39 60.8125C40.2344 59.3906 41.7109 58.2969 43.4297 57.5312C45.1641 56.7656 47.1016 56.3828 49.2422 56.3828C52.0234 56.3828 54.375 56.8984 56.2969 57.9297C58.2188 58.9453 59.7109 60.3438 60.7734 62.125C61.8359 63.9062 62.4766 65.9531 62.6953 68.2656H56.25C56.125 66.8281 55.8125 65.6094 55.3125 64.6094C54.8281 63.6094 54.0938 62.8516 53.1094 62.3359C52.1406 61.8047 50.8516 61.5391 49.2422 61.5391C47.9922 61.5391 46.8906 61.7734 45.9375 62.2422C45 62.7109 44.2188 63.4141 43.5938 64.3516C42.9688 65.2734 42.5 66.4297 42.1875 67.8203C41.875 69.1953 41.7188 70.7891 41.7188 72.6016V75.25C41.7188 76.9844 41.8594 78.5391 42.1406 79.9141C42.4219 81.2891 42.8594 82.4531 43.4531 83.4062C44.0469 84.3594 44.8125 85.0859 45.75 85.5859C46.6875 86.0859 47.8047 86.3359 49.1016 86.3359C50.6797 86.3359 51.9609 86.0859 52.9453 85.5859C53.9453 85.0859 54.7031 84.3516 55.2188 83.3828C55.75 82.4141 56.0859 81.2109 56.2266 79.7734ZM66.9375 63.6953H78.0234C79.6953 63.6953 81.2031 63.875 82.5469 64.2344C83.9062 64.5781 85.0547 65.1016 85.9922 65.8047C86.9453 66.4922 87.6719 67.3516 88.1719 68.3828C88.6719 69.3984 88.9219 70.5781 88.9219 71.9219C88.9219 73.4531 88.6562 74.75 88.125 75.8125C87.5938 76.875 86.8516 77.75 85.8984 78.4375C84.9453 79.1094 83.8281 79.6641 82.5469 80.1016L80.5312 81.25H70.9453L70.8984 76.3516H78.0938C79.1094 76.3516 79.9609 76.1953 80.6484 75.8828C81.3359 75.5703 81.8516 75.125 82.1953 74.5469C82.5391 73.9688 82.7109 73.2891 82.7109 72.5078C82.7109 71.6953 82.5312 71 82.1719 70.4219C81.8281 69.8281 81.3047 69.375 80.6016 69.0625C79.9141 68.75 79.0547 68.5938 78.0234 68.5938H73.1719V91H66.9375V63.6953ZM83.3203 91L76.6641 78.9297L83.2266 78.8828L90 90.7188V91H83.3203ZM109.758 63.6953H115.992V81.5781C115.992 83.6875 115.508 85.4766 114.539 86.9453C113.586 88.3984 112.258 89.5 110.555 90.25C108.867 91 106.914 91.375 104.695 91.375C102.477 91.375 100.516 91 98.8125 90.25C97.1094 89.5 95.7734 88.3984 94.8047 86.9453C93.8516 85.4766 93.375 83.6875 93.375 81.5781V63.6953H99.5625V81.5781C99.5625 82.7188 99.7656 83.6562 100.172 84.3906C100.594 85.125 101.188 85.6641 101.953 86.0078C102.719 86.3516 103.633 86.5234 104.695 86.5234C105.773 86.5234 106.688 86.3516 107.438 86.0078C108.188 85.6641 108.758 85.125 109.148 84.3906C109.555 83.6562 109.758 82.7188 109.758 81.5781V63.6953ZM127.547 63.6953V91H121.336V63.6953H127.547ZM148.406 83.7812C148.406 83.2969 148.312 82.8594 148.125 82.4688C147.953 82.0781 147.664 81.7266 147.258 81.4141C146.852 81.1016 146.289 80.8047 145.57 80.5234C144.867 80.2422 143.984 79.9766 142.922 79.7266C141.25 79.3203 139.789 78.875 138.539 78.3906C137.289 77.9062 136.242 77.3359 135.398 76.6797C134.57 76.0234 133.945 75.25 133.523 74.3594C133.117 73.4531 132.914 72.3984 132.914 71.1953C132.914 70.0391 133.164 68.9844 133.664 68.0312C134.18 67.0625 134.898 66.2266 135.82 65.5234C136.758 64.8203 137.859 64.2812 139.125 63.9062C140.406 63.5156 141.805 63.3203 143.32 63.3203C145.523 63.3203 147.453 63.6719 149.109 64.375C150.781 65.0781 152.078 66.0625 153 67.3281C153.922 68.5781 154.383 70.0625 154.383 71.7812H148.172C148.172 71.0625 147.984 70.4141 147.609 69.8359C147.25 69.2422 146.711 68.7656 145.992 68.4062C145.273 68.0469 144.383 67.8672 143.32 67.8672C142.305 67.8672 141.461 68.0234 140.789 68.3359C140.133 68.6328 139.641 69.0234 139.312 69.5078C139 69.9766 138.844 70.4766 138.844 71.0078C138.844 71.4453 138.938 71.8438 139.125 72.2031C139.328 72.5469 139.641 72.8672 140.062 73.1641C140.5 73.4453 141.07 73.7188 141.773 73.9844C142.477 74.2344 143.328 74.4922 144.328 74.7578C145.984 75.1328 147.438 75.5781 148.688 76.0938C149.953 76.5938 151 77.1953 151.828 77.8984C152.672 78.6016 153.305 79.4219 153.727 80.3594C154.148 81.2969 154.359 82.3828 154.359 83.6172C154.359 84.8359 154.109 85.9297 153.609 86.8984C153.109 87.8516 152.383 88.6641 151.43 89.3359C150.492 89.9922 149.367 90.5 148.055 90.8594C146.758 91.2031 145.305 91.375 143.695 91.375C142.258 91.375 140.844 91.2031 139.453 90.8594C138.062 90.5156 136.805 89.9844 135.68 89.2656C134.555 88.5312 133.656 87.6016 132.984 86.4766C132.312 85.3516 131.977 84.0078 131.977 82.4453H138.211C138.211 83.2266 138.336 83.8984 138.586 84.4609C138.852 85.0234 139.227 85.4844 139.711 85.8438C140.211 86.1875 140.82 86.4453 141.539 86.6172C142.258 86.7734 143.07 86.8516 143.977 86.8516C145.039 86.8516 145.898 86.7031 146.555 86.4062C147.211 86.1094 147.68 85.7266 147.961 85.2578C148.258 84.7891 148.406 84.2969 148.406 83.7812ZM178.43 86.125V91H162.773V86.125H178.43ZM164.859 63.6953V91H158.648V63.6953H164.859ZM176.414 74.4531V79.3281H162.773V74.4531H176.414ZM178.43 63.6953V68.5938H162.773V63.6953H178.43ZM197.156 83.7812C197.156 83.2969 197.062 82.8594 196.875 82.4688C196.703 82.0781 196.414 81.7266 196.008 81.4141C195.602 81.1016 195.039 80.8047 194.32 80.5234C193.617 80.2422 192.734 79.9766 191.672 79.7266C190 79.3203 188.539 78.875 187.289 78.3906C186.039 77.9062 184.992 77.3359 184.148 76.6797C183.32 76.0234 182.695 75.25 182.273 74.3594C181.867 73.4531 181.664 72.3984 181.664 71.1953C181.664 70.0391 181.914 68.9844 182.414 68.0312C182.93 67.0625 183.648 66.2266 184.57 65.5234C185.508 64.8203 186.609 64.2812 187.875 63.9062C189.156 63.5156 190.555 63.3203 192.07 63.3203C194.273 63.3203 196.203 63.6719 197.859 64.375C199.531 65.0781 200.828 66.0625 201.75 67.3281C202.672 68.5781 203.133 70.0625 203.133 71.7812H196.922C196.922 71.0625 196.734 70.4141 196.359 69.8359C196 69.2422 195.461 68.7656 194.742 68.4062C194.023 68.0469 193.133 67.8672 192.07 67.8672C191.055 67.8672 190.211 68.0234 189.539 68.3359C188.883 68.6328 188.391 69.0234 188.062 69.5078C187.75 69.9766 187.594 70.4766 187.594 71.0078C187.594 71.4453 187.688 71.8438 187.875 72.2031C188.078 72.5469 188.391 72.8672 188.812 73.1641C189.25 73.4453 189.82 73.7188 190.523 73.9844C191.227 74.2344 192.078 74.4922 193.078 74.7578C194.734 75.1328 196.188 75.5781 197.438 76.0938C198.703 76.5938 199.75 77.1953 200.578 77.8984C201.422 78.6016 202.055 79.4219 202.477 80.3594C202.898 81.2969 203.109 82.3828 203.109 83.6172C203.109 84.8359 202.859 85.9297 202.359 86.8984C201.859 87.8516 201.133 88.6641 200.18 89.3359C199.242 89.9922 198.117 90.5 196.805 90.8594C195.508 91.2031 194.055 91.375 192.445 91.375C191.008 91.375 189.594 91.2031 188.203 90.8594C186.812 90.5156 185.555 89.9844 184.43 89.2656C183.305 88.5312 182.406 87.6016 181.734 86.4766C181.062 85.3516 180.727 84.0078 180.727 82.4453H186.961C186.961 83.2266 187.086 83.8984 187.336 84.4609C187.602 85.0234 187.977 85.4844 188.461 85.8438C188.961 86.1875 189.57 86.4453 190.289 86.6172C191.008 86.7734 191.82 86.8516 192.727 86.8516C193.789 86.8516 194.648 86.7031 195.305 86.4062C195.961 86.1094 196.43 85.7266 196.711 85.2578C197.008 84.7891 197.156 84.2969 197.156 83.7812Z" fill="#202020"/>
</mask>
<g mask="url(#mask0_29_1561)">
</g>
<g clip-path="url(#clip1_29_1561)">
<path d="M24.6396 52.3019V28.2974H30.6691V47.5901H41.047V52.3019H24.6396ZM50.1977 28.2974V52.3019H44.1682V28.2974H50.1977ZM53.9828 52.3019V28.2974H71.0113V33.0092H60.0122V37.932H69.9272V42.6556H60.0122V52.3019H53.9828ZM74.0472 52.3019V28.2974H91.4414V33.0092H80.0766V37.932H90.5523V42.6556H80.0766V47.5901H91.4414V52.3019H74.0472ZM105.351 28.2974H111.296V44.8943C111.288 46.4493 110.902 47.8089 110.138 48.9732C109.375 50.1297 108.319 51.0283 106.972 51.669C105.632 52.3098 104.081 52.6301 102.318 52.6301C100.759 52.6301 99.3423 52.3684 98.0673 51.8448C96.8009 51.3213 95.7896 50.5086 95.0344 49.4069C94.2873 48.3051 93.918 46.8947 93.9261 45.1756H99.9314C99.9555 45.7929 100.077 46.3203 100.297 46.7579C100.524 47.1877 100.837 47.512 101.235 47.7308C101.632 47.9495 102.107 48.0589 102.66 48.0589C103.236 48.0589 103.723 47.9418 104.121 47.7073C104.519 47.4651 104.82 47.1095 105.023 46.6407C105.234 46.1718 105.343 45.5897 105.351 44.8943V28.2974ZM159.65 28.2974H165.667V43.7808C165.667 45.5702 165.224 47.1291 164.339 48.4575C163.454 49.778 162.22 50.8017 160.637 51.5284C159.053 52.2472 157.213 52.6067 155.118 52.6067C152.999 52.6067 151.148 52.2472 149.564 51.5284C147.981 50.8017 146.751 49.778 145.873 48.4575C144.997 47.1291 144.558 45.5702 144.558 43.7808V28.2974H150.588V43.2768C150.588 44.1051 150.774 44.8435 151.148 45.4921C151.529 46.1406 152.061 46.6485 152.743 47.0158C153.425 47.383 154.217 47.5667 155.118 47.5667C156.02 47.5667 156.808 47.383 157.481 47.0158C158.164 46.6485 158.696 46.1406 159.077 45.4921C159.459 44.8435 159.65 44.1051 159.65 43.2768V28.2974ZM169.446 52.3019V28.2974H179.751C181.618 28.2974 183.23 28.6216 184.586 29.2702C185.951 29.911 187.002 30.833 187.742 32.0363C188.48 33.2319 188.85 34.6501 188.85 36.2911C188.85 37.9554 188.472 39.3698 187.717 40.5341C186.962 41.6905 185.89 42.5735 184.501 43.183C183.113 43.7847 181.468 44.0855 179.568 44.0855H173.052V39.5143H178.448C179.357 39.5143 180.116 39.401 180.725 39.1745C181.342 38.94 181.809 38.5884 182.126 38.1196C182.443 37.6429 182.601 37.0334 182.601 36.2911C182.601 35.5487 182.443 34.9354 182.126 34.4509C181.809 33.9586 181.342 33.5913 180.725 33.3491C180.108 33.0991 179.349 32.974 178.448 32.974H175.475V52.3019H169.446ZM183.49 41.3311L189.703 52.3019H183.125L177.034 41.3311H183.49ZM213.388 28.2974V52.3019H208.272L198.345 38.4478H198.186V52.3019H192.157V28.2974H197.346L207.163 42.1281H207.371V28.2974H213.388ZM217.179 52.3019V28.2974H234.573V33.0092H223.208V37.932H233.684V42.6556H223.208V47.5901H234.573V52.3019H217.179ZM237.107 28.2974H243.842L249.117 38.3422H249.336L254.61 28.2974H261.346L252.223 44.2848V52.3019H246.23V44.2848L237.107 28.2974Z" fill="url(#paint0_linear_29_1561)"/>
<mask id="mask1_29_1561" style="mask-type:alpha" maskUnits="userSpaceOnUse" x="95" y="17" width="66" height="44">
<path d="M115.203 54.8806C111.451 56.4278 104.216 60.8114 98.3204 60.8114C92.425 60.8114 98.3204 20.1061 98.3204 20.1061L160.49 17.7485V54.8806C160.49 54.8806 150.039 60.8114 137.177 60.8114C124.314 60.8114 118.954 53.3334 115.203 54.8806Z" fill="#FBD756"/>
</mask>
<g mask="url(#mask1_29_1561)">
<path d="M128.333 77.0566C140.765 77.0566 150.843 67.3589 150.843 55.3962C150.843 43.4335 140.765 33.7358 128.333 33.7358C115.901 33.7358 105.823 43.4335 105.823 55.3962C105.823 67.3589 115.901 77.0566 128.333 77.0566Z" fill="#FBD756"/>
</g>
<path d="M59.2036 79.8089H49.3143C49.1824 78.9549 48.9121 78.1843 48.5034 77.4967C48.0946 76.8091 47.554 76.2214 46.8815 75.7334C46.209 75.2454 45.4113 74.8739 44.4883 74.6188C43.5784 74.3527 42.5698 74.2196 41.4621 74.2196C39.4975 74.2196 37.8031 74.6244 36.3791 75.434C34.9682 76.2435 33.8803 77.4135 33.1156 78.9441C32.364 80.4742 31.9882 82.3264 31.9882 84.5001C31.9882 86.7626 32.3706 88.6589 33.1353 90.189C33.9133 91.7087 35.0011 92.8564 36.3988 93.6325C37.8097 94.3977 39.4777 94.7806 41.4028 94.7806C42.4841 94.7806 43.4664 94.6639 44.3498 94.4311C45.2465 94.1982 46.031 93.8599 46.7035 93.4163C47.3892 92.9618 47.9496 92.4127 48.3847 91.7695C48.833 91.115 49.1429 90.3777 49.3143 89.557L59.2036 89.607C59.0322 91.115 58.5113 92.6014 57.6411 94.0653C56.784 95.5292 55.6039 96.8652 54.1007 98.0741C52.5975 99.2718 50.7647 100.226 48.6022 100.935C46.453 101.645 43.9872 102 41.205 102C37.5394 102 34.2561 101.323 31.3553 99.9704C28.4676 98.6065 26.1865 96.6215 24.5119 94.0153C22.8373 91.4092 22 88.2373 22 84.5001C22 80.7517 22.8505 77.5743 24.5514 74.9682C26.2524 72.362 28.5533 70.3825 31.4542 69.0295C34.355 67.6765 37.6053 67 41.205 67C43.6576 67 45.9255 67.2884 48.0089 67.865C50.0922 68.4306 51.9251 69.2624 53.5073 70.3603C55.0896 71.4471 56.3752 72.7834 57.3642 74.3693C58.3531 75.9552 58.9662 77.7684 59.2036 79.8089ZM64.8059 101.534V67.4658H81.5386C84.5714 67.4658 87.1886 67.926 89.3908 68.8465C91.6058 69.7559 93.3136 71.0645 94.5133 72.7724C95.7134 74.4691 96.3132 76.482 96.3132 78.8108C96.3132 81.1728 95.7 83.1804 94.4736 84.8325C93.2478 86.4739 91.5072 87.7274 89.2521 88.5922C86.9974 89.4462 84.3272 89.8732 81.2419 89.8732H70.6603V83.3853H79.4222C80.8992 83.3853 82.132 83.2245 83.1206 82.9029C84.1232 82.5705 84.8809 82.0714 85.3956 81.4057C85.9097 80.7296 86.1668 79.8643 86.1668 78.8108C86.1668 77.7573 85.9097 76.8868 85.3956 76.1992C84.8809 75.5005 84.1232 74.9793 83.1206 74.6355C82.1186 74.2806 80.8858 74.1031 79.4222 74.1031H74.5964V101.534H64.8059ZM87.6106 85.964L97.6976 101.534H87.0172L77.1279 85.964H87.6106ZM126.189 67.4658H135.96V89.4408C135.96 91.9803 135.241 94.1928 133.803 96.0778C132.367 97.952 130.362 99.4051 127.791 100.436C125.22 101.457 122.233 101.967 118.831 101.967C115.39 101.967 112.383 101.457 109.812 100.436C107.241 99.4051 105.243 97.952 103.819 96.0778C102.395 94.1928 101.683 91.9803 101.683 89.4408V67.4658H111.473V88.7251C111.473 89.9007 111.777 90.9488 112.383 91.8695C113.003 92.7897 113.867 93.5108 114.974 94.032C116.082 94.5531 117.368 94.8139 118.831 94.8139C120.295 94.8139 121.574 94.5531 122.668 94.032C123.776 93.5108 124.64 92.7897 125.259 91.8695C125.879 90.9488 126.189 89.9007 126.189 88.7251V67.4658ZM151.886 67.4658V101.534H142.096V67.4658H151.886ZM179.927 77.6797C179.795 76.4598 179.208 75.5116 178.167 74.8351C177.139 74.1475 175.669 73.8038 173.757 73.8038C172.491 73.8038 171.436 73.9423 170.592 74.2196C169.748 74.4969 169.115 74.8795 168.693 75.3674C168.271 75.8443 168.054 76.3932 168.04 77.0143C168.014 77.5244 168.133 77.9736 168.396 78.3617C168.673 78.75 169.069 79.0937 169.583 79.3932C170.111 79.6815 170.744 79.9364 171.482 80.1585C172.22 80.3801 173.051 80.5742 173.974 80.7404L177.455 81.4057C179.459 81.7719 181.226 82.2597 182.756 82.8696C184.298 83.4799 185.591 84.206 186.632 85.0492C187.687 85.8919 188.485 86.8621 189.026 87.9603C189.566 89.058 189.843 90.289 189.856 91.6528C189.843 93.8045 189.197 95.6508 187.918 97.1926C186.639 98.734 184.8 99.915 182.4 100.736C180.013 101.556 177.132 101.967 173.757 101.967C170.368 101.967 167.414 101.54 164.896 100.686C162.377 99.8321 160.419 98.5344 159.021 96.7931C157.623 95.0522 156.905 92.851 156.866 90.189H166.24C166.32 91.2871 166.669 92.2019 167.289 92.9339C167.909 93.6658 168.759 94.2203 169.84 94.5973C170.935 94.9747 172.2 95.163 173.638 95.163C174.956 95.163 176.077 95.0135 177 94.7139C177.936 94.4144 178.655 93.9987 179.156 93.4663C179.657 92.9339 179.914 92.324 179.927 91.6366C179.914 90.9934 179.677 90.4444 179.215 89.9894C178.754 89.5237 178.042 89.1246 177.079 88.7918C176.13 88.4481 174.917 88.1319 173.44 87.8436L169.207 87.0121C165.7 86.3356 162.938 85.2429 160.92 83.7348C158.903 82.2156 157.901 80.1639 157.914 77.5799C157.901 75.4728 158.573 73.6263 159.931 72.0404C161.289 70.4546 163.168 69.218 165.568 68.3308C167.968 67.4436 170.704 67 173.776 67C176.914 67 179.637 67.4492 181.945 68.3474C184.266 69.2346 186.065 70.4823 187.344 72.0903C188.623 73.6984 189.276 75.5615 189.302 77.6797H179.927ZM194.801 101.534V67.4658H223.045V74.1531H204.591V81.1399H221.601V87.8436H204.591V94.8468H223.045V101.534H194.801ZM251.071 77.6797C250.939 76.4598 250.352 75.5116 249.311 74.8351C248.282 74.1475 246.812 73.8038 244.9 73.8038C243.634 73.8038 242.579 73.9423 241.735 74.2196C240.891 74.4969 240.259 74.8795 239.837 75.3674C239.415 75.8443 239.197 76.3932 239.184 77.0143C239.158 77.5244 239.276 77.9736 239.54 78.3617C239.817 78.75 240.212 79.0937 240.727 79.3932C241.254 79.6815 241.887 79.9364 242.625 80.1585C243.364 80.3801 244.195 80.5742 245.118 80.7404L248.599 81.4057C250.603 81.7719 252.37 82.2597 253.899 82.8696C255.442 83.4799 256.734 84.206 257.776 85.0492C258.831 85.8919 259.628 86.8621 260.169 87.9603C260.71 89.058 260.987 90.289 261 91.6528C260.987 93.8045 260.341 95.6508 259.061 97.1926C257.782 98.734 255.943 99.915 253.543 100.736C251.157 101.556 248.275 101.967 244.9 101.967C241.512 101.967 238.557 101.54 236.039 100.686C233.521 99.8321 231.563 98.5344 230.165 96.7931C228.767 95.0522 228.048 92.851 228.009 90.189H237.384C237.463 91.2871 237.813 92.2019 238.433 92.9339C239.052 93.6658 239.903 94.2203 240.984 94.5973C242.078 94.9747 243.344 95.163 244.782 95.163C246.1 95.163 247.221 95.0135 248.144 94.7139C249.08 94.4144 249.799 93.9987 250.3 93.4663C250.801 92.9339 251.058 92.324 251.071 91.6366C251.058 90.9934 250.82 90.4444 250.359 89.9894C249.898 89.5237 249.185 89.1246 248.223 88.7918C247.273 88.4481 246.06 88.1319 244.583 87.8436L240.351 87.0121C236.844 86.3356 234.081 85.2429 232.064 83.7348C230.046 82.2156 229.044 80.1639 229.057 77.5799C229.044 75.4728 229.717 73.6263 231.075 72.0404C232.433 70.4546 234.312 69.218 236.712 68.3308C239.112 67.4436 241.847 67 244.92 67C248.058 67 250.781 67.4492 253.088 68.3474C255.409 69.2346 257.209 70.4823 258.488 72.0903C259.767 73.6984 260.419 75.5615 260.446 77.6797H251.071Z" fill="white"/>
</g>
<path d="M249.346 55.1739C247.502 54.7574 245.283 55.1148 244.388 55.9716C240.793 59.4138 233.449 61.5518 225.224 61.5518C216.999 61.5518 209.656 59.4136 206.059 55.9716C205.438 55.3778 204.143 55.0007 202.722 55.0007C201.302 55.0007 200.006 55.3779 199.386 55.9716C195.789 59.4138 188.445 61.5518 180.221 61.5518C171.996 61.5518 164.652 59.4136 161.056 55.9716C160.435 55.3778 159.139 55.0007 157.719 55.0007C156.299 55.0007 155.003 55.3779 154.383 55.9716C150.786 59.4138 143.442 61.5518 135.217 61.5518C126.993 61.5518 119.649 59.4136 116.053 55.9716C115.432 55.3778 114.137 55.0007 112.716 55.0007C111.295 55.0007 110 55.3779 109.379 55.9716C105.783 59.4138 98.4392 61.5518 90.2145 61.5518C81.9899 61.5518 74.6462 59.4136 71.0499 55.9716C70.4292 55.3778 69.1336 55.0007 67.713 55.0007C66.2925 55.0007 64.9969 55.3779 64.3763 55.9716C60.7799 59.4138 53.436 61.5518 45.2114 61.5518C36.9864 61.5518 29.6425 59.4136 26.0466 55.9716C25.1518 55.115 22.9328 54.7582 21.0897 55.1739C19.247 55.5899 18.4784 56.6212 19.3737 57.4778C24.1476 62.0473 34.2898 65 45.2114 65C54.0226 65 62.3257 63.0785 67.713 59.9365C73.1 63.0785 81.4029 65 90.214 65C99.0251 65 107.328 63.0785 112.716 59.9365C118.102 63.0785 126.406 65 135.217 65C144.028 65 152.331 63.0785 157.719 59.9365C163.105 63.0785 171.409 65 180.22 65C189.031 65 197.334 63.0785 202.722 59.9365C208.108 63.0785 216.412 65 225.223 65C236.145 65 246.286 62.0473 251.061 57.4778C251.957 56.6212 251.188 55.5896 249.346 55.1739Z" fill="#0578D6"/>
<path d="M482.179 55.1739C480.335 54.7574 478.116 55.1148 477.221 55.9716C473.626 59.4138 466.282 61.5518 458.057 61.5518C449.832 61.5518 442.489 59.4136 438.892 55.9716C438.271 55.3778 436.976 55.0007 435.555 55.0007C434.135 55.0007 432.839 55.3779 432.219 55.9716C428.622 59.4138 421.278 61.5518 413.054 61.5518C404.829 61.5518 397.485 59.4136 393.889 55.9716C393.268 55.3778 391.973 55.0007 390.552 55.0007C389.132 55.0007 387.836 55.3779 387.216 55.9716C383.619 59.4138 376.275 61.5518 368.05 61.5518C359.826 61.5518 352.482 59.4136 348.886 55.9716C348.265 55.3778 346.97 55.0007 345.549 55.0007C344.128 55.0007 342.833 55.3779 342.212 55.9716C338.616 59.4138 331.272 61.5518 323.048 61.5518C314.823 61.5518 307.479 59.4136 303.883 55.9716C303.262 55.3778 301.967 55.0007 300.546 55.0007C299.126 55.0007 297.83 55.3779 297.209 55.9716C293.613 59.4138 286.269 61.5518 278.044 61.5518C269.819 61.5518 262.475 59.4136 258.88 55.9716C257.985 55.115 255.766 54.7582 253.923 55.1739C252.08 55.5899 251.311 56.6212 252.207 57.4778C256.981 62.0473 267.123 65 278.044 65C286.856 65 295.159 63.0785 300.546 59.9365C305.933 63.0785 314.236 65 323.047 65C331.858 65 340.161 63.0785 345.549 59.9365C350.935 63.0785 359.239 65 368.05 65C376.861 65 385.164 63.0785 390.552 59.9365C395.938 63.0785 404.242 65 413.053 65C421.864 65 430.167 63.0785 435.555 59.9365C440.941 63.0785 449.245 65 458.056 65C468.978 65 479.12 62.0473 483.894 57.4778C484.79 56.6212 484.021 55.5896 482.179 55.1739Z" fill="#0578D6"/>
<path d="M715.013 55.1739C713.169 54.7574 710.95 55.1148 710.055 55.9716C706.46 59.4138 699.116 61.5518 690.891 61.5518C682.666 61.5518 675.322 59.4136 671.726 55.9716C671.105 55.3778 669.81 55.0007 668.389 55.0007C666.969 55.0007 665.673 55.3779 665.053 55.9716C661.456 59.4138 654.112 61.5518 645.888 61.5518C637.663 61.5518 630.319 59.4136 626.723 55.9716C626.102 55.3778 624.806 55.0007 623.386 55.0007C621.966 55.0007 620.67 55.3779 620.05 55.9716C616.453 59.4138 609.109 61.5518 600.884 61.5518C592.66 61.5518 585.316 59.4136 581.72 55.9716C581.099 55.3778 579.804 55.0007 578.383 55.0007C576.962 55.0007 575.667 55.3779 575.046 55.9716C571.45 59.4138 564.106 61.5518 555.882 61.5518C547.657 61.5518 540.313 59.4136 536.717 55.9716C536.096 55.3778 534.801 55.0007 533.38 55.0007C531.96 55.0007 530.664 55.3779 530.043 55.9716C526.447 59.4138 519.103 61.5518 510.878 61.5518C502.653 61.5518 495.309 59.4136 491.714 55.9716C490.819 55.115 488.6 54.7582 486.757 55.1739C484.914 55.5899 484.145 56.6212 485.041 57.4778C489.815 62.0473 499.957 65 510.878 65C519.69 65 527.993 63.0785 533.38 59.9365C538.767 63.0785 547.07 65 555.881 65C564.692 65 572.995 63.0785 578.383 59.9365C583.769 63.0785 592.073 65 600.884 65C609.695 65 617.998 63.0785 623.386 59.9365C628.772 63.0785 637.076 65 645.887 65C654.698 65 663.001 63.0785 668.389 59.9365C673.775 63.0785 682.079 65 690.89 65C701.812 65 711.953 62.0473 716.728 57.4778C717.624 56.6212 716.855 55.5896 715.013 55.1739Z" fill="#0578D6"/>
<path d="M947.846 55.1739C946.002 54.7574 943.783 55.1148 942.888 55.9716C939.293 59.4138 931.949 61.5518 923.724 61.5518C915.499 61.5518 908.156 59.4136 904.559 55.9716C903.938 55.3778 902.643 55.0007 901.222 55.0007C899.802 55.0007 898.506 55.3779 897.886 55.9716C894.289 59.4138 886.945 61.5518 878.721 61.5518C870.496 61.5518 863.152 59.4136 859.556 55.9716C858.935 55.3778 857.639 55.0007 856.219 55.0007C854.799 55.0007 853.503 55.3779 852.883 55.9716C849.286 59.4138 841.942 61.5518 833.717 61.5518C825.493 61.5518 818.149 59.4136 814.553 55.9716C813.932 55.3778 812.637 55.0007 811.216 55.0007C809.795 55.0007 808.5 55.3779 807.879 55.9716C804.283 59.4138 796.939 61.5518 788.715 61.5518C780.49 61.5518 773.146 59.4136 769.55 55.9716C768.929 55.3778 767.634 55.0007 766.213 55.0007C764.793 55.0007 763.497 55.3779 762.876 55.9716C759.28 59.4138 751.936 61.5518 743.711 61.5518C735.486 61.5518 728.142 59.4136 724.547 55.9716C723.652 55.115 721.433 54.7582 719.59 55.1739C717.747 55.5899 716.978 56.6212 717.874 57.4778C722.648 62.0473 732.79 65 743.711 65C752.523 65 760.826 63.0785 766.213 59.9365C771.6 63.0785 779.903 65 788.714 65C797.525 65 805.828 63.0785 811.216 59.9365C816.602 63.0785 824.906 65 833.717 65C842.528 65 850.831 63.0785 856.219 59.9365C861.605 63.0785 869.909 65 878.72 65C887.531 65 895.834 63.0785 901.222 59.9365C906.608 63.0785 914.912 65 923.723 65C934.645 65 944.786 62.0473 949.561 57.4778C950.457 56.6212 949.688 55.5896 947.846 55.1739Z" fill="#0578D6"/>
<path d="M1180.68 55.1739C1178.83 54.7574 1176.62 55.1148 1175.72 55.9716C1172.13 59.4138 1164.78 61.5518 1156.56 61.5518C1148.33 61.5518 1140.99 59.4136 1137.39 55.9716C1136.77 55.3778 1135.48 55.0007 1134.06 55.0007C1132.63 55.0007 1131.34 55.3779 1130.72 55.9716C1127.12 59.4138 1119.78 61.5518 1111.55 61.5518C1103.33 61.5518 1095.99 59.4136 1092.39 55.9716C1091.77 55.3778 1090.47 55.0007 1089.05 55.0007C1087.63 55.0007 1086.34 55.3779 1085.72 55.9716C1082.12 59.4138 1074.78 61.5518 1066.55 61.5518C1058.33 61.5518 1050.98 59.4136 1047.39 55.9716C1046.77 55.3778 1045.47 55.0007 1044.05 55.0007C1042.63 55.0007 1041.33 55.3779 1040.71 55.9716C1037.12 59.4138 1029.77 61.5518 1021.55 61.5518C1013.32 61.5518 1005.98 59.4136 1002.38 55.9716C1001.76 55.3778 1000.47 55.0007 999.046 55.0007C997.626 55.0007 996.33 55.3779 995.709 55.9716C992.113 59.4138 984.769 61.5518 976.544 61.5518C968.319 61.5518 960.975 59.4136 957.38 55.9716C956.485 55.115 954.266 54.7582 952.423 55.1739C950.58 55.5899 949.811 56.6212 950.707 57.4778C955.481 62.0473 965.623 65 976.544 65C985.356 65 993.659 63.0785 999.046 59.9365C1004.43 63.0785 1012.74 65 1021.55 65C1030.36 65 1038.66 63.0785 1044.05 59.9365C1049.44 63.0785 1057.74 65 1066.55 65C1075.36 65 1083.66 63.0785 1089.05 59.9365C1094.44 63.0785 1102.74 65 1111.55 65C1120.36 65 1128.67 63.0785 1134.05 59.9365C1139.44 63.0785 1147.74 65 1156.56 65C1167.48 65 1177.62 62.0473 1182.39 57.4778C1183.29 56.6212 1182.52 55.5896 1180.68 55.1739Z" fill="#0578D6"/>
<path d="M1413.51 55.1739C1411.67 54.7574 1409.45 55.1148 1408.55 55.9716C1404.96 59.4138 1397.62 61.5518 1389.39 61.5518C1381.16 61.5518 1373.82 59.4136 1370.22 55.9716C1369.6 55.3778 1368.31 55.0007 1366.89 55.0007C1365.47 55.0007 1364.17 55.3779 1363.55 55.9716C1359.96 59.4138 1352.61 61.5518 1344.39 61.5518C1336.16 61.5518 1328.82 59.4136 1325.22 55.9716C1324.6 55.3778 1323.31 55.0007 1321.89 55.0007C1320.46 55.0007 1319.17 55.3779 1318.55 55.9716C1314.95 59.4138 1307.61 61.5518 1299.38 61.5518C1291.16 61.5518 1283.82 59.4136 1280.22 55.9716C1279.6 55.3778 1278.3 55.0007 1276.88 55.0007C1275.46 55.0007 1274.17 55.3779 1273.55 55.9716C1269.95 59.4138 1262.61 61.5518 1254.38 61.5518C1246.16 61.5518 1238.81 59.4136 1235.22 55.9716C1234.6 55.3778 1233.3 55.0007 1231.88 55.0007C1230.46 55.0007 1229.16 55.3779 1228.54 55.9716C1224.95 59.4138 1217.6 61.5518 1209.38 61.5518C1201.15 61.5518 1193.81 59.4136 1190.21 55.9716C1189.32 55.115 1187.1 54.7582 1185.26 55.1739C1183.41 55.5899 1182.64 56.6212 1183.54 57.4778C1188.31 62.0473 1198.46 65 1209.38 65C1218.19 65 1226.49 63.0785 1231.88 59.9365C1237.27 63.0785 1245.57 65 1254.38 65C1263.19 65 1271.49 63.0785 1276.88 59.9365C1282.27 63.0785 1290.57 65 1299.38 65C1308.19 65 1316.5 63.0785 1321.88 59.9365C1327.27 63.0785 1335.58 65 1344.39 65C1353.2 65 1361.5 63.0785 1366.89 59.9365C1372.27 63.0785 1380.58 65 1389.39 65C1400.31 65 1410.45 62.0473 1415.23 57.4778C1416.12 56.6212 1415.35 55.5896 1413.51 55.1739Z" fill="#0578D6"/>
</g>
<defs>
<linearGradient id="paint0_linear_29_1561" x1="22.7517" y1="40.1824" x2="262.32" y2="40.1824" gradientUnits="userSpaceOnUse">
<stop stop-color="#FF7233"/>
<stop offset="1" stop-color="#E93AB5"/>
</linearGradient>
<clipPath id="clip0_29_1561">
<rect width="1440" height="126" fill="white"/>
</clipPath>
<clipPath id="clip1_29_1561">
<rect width="246" height="82" fill="white" transform="translate(19 26)"/>
</clipPath>
</defs>
</svg>
