<svg width="459" height="159" viewBox="0 0 459 159" fill="none" xmlns="http://www.w3.org/2000/svg">
<g clip-path="url(#clip0_48_356)">
<path d="M10.5225 51V4.45459H21.7725V41.8637H41.1362V51H10.5225ZM58.21 4.45459V51H46.96V4.45459H58.21ZM65.2725 51V4.45459H97.0453V13.591H76.5225V23.1364H95.0225V32.2956H76.5225V51H65.2725ZM102.71 51V4.45459H135.165V13.591H113.96V23.1364H133.506V32.2956H113.96V41.8637H135.165V51H102.71ZM161.119 4.45459H172.21V36.6364C172.195 39.6515 171.475 42.288 170.051 44.5456C168.627 46.788 166.657 48.5304 164.142 49.7728C161.642 51.0153 158.748 51.6364 155.46 51.6364C152.551 51.6364 149.907 51.1289 147.528 50.1137C145.165 49.0986 143.278 47.5227 141.869 45.3864C140.475 43.25 139.786 40.5153 139.801 37.1819H151.006C151.051 38.3789 151.278 39.4015 151.688 40.25C152.112 41.0833 152.695 41.7121 153.438 42.1364C154.18 42.5606 155.066 42.7728 156.097 42.7728C157.172 42.7728 158.081 42.5456 158.824 42.091C159.566 41.6213 160.127 40.9319 160.506 40.0228C160.9 39.1137 161.104 37.9848 161.119 36.6364V4.45459ZM262.432 4.45459H273.659V34.4773C273.659 37.947 272.833 40.9698 271.182 43.5456C269.53 46.1062 267.227 48.0909 264.273 49.5C261.318 50.8939 257.886 51.591 253.977 51.591C250.023 51.591 246.568 50.8939 243.614 49.5C240.659 48.0909 238.364 46.1062 236.727 43.5456C235.091 40.9698 234.273 37.947 234.273 34.4773V4.45459H245.523V33.5C245.523 35.1061 245.871 36.538 246.568 37.7956C247.28 39.0531 248.273 40.0379 249.545 40.75C250.818 41.4621 252.295 41.8182 253.977 41.8182C255.659 41.8182 257.129 41.4621 258.386 40.75C259.659 40.0379 260.652 39.0531 261.364 37.7956C262.076 36.538 262.432 35.1061 262.432 33.5V4.45459ZM280.71 51V4.45459H299.938C303.422 4.45459 306.43 5.08338 308.96 6.34096C311.506 7.58338 313.468 9.37126 314.847 11.7046C316.225 14.0228 316.915 16.7727 316.915 19.9545C316.915 23.1818 316.21 25.9243 314.801 28.1819C313.392 30.4243 311.392 32.1364 308.801 33.3182C306.21 34.4848 303.142 35.0682 299.597 35.0682H287.438V26.2045H297.506C299.203 26.2045 300.619 25.9848 301.756 25.5455C302.907 25.0909 303.778 24.4091 304.369 23.5C304.96 22.5758 305.256 21.3939 305.256 19.9545C305.256 18.5151 304.96 17.3258 304.369 16.3864C303.778 15.4318 302.907 14.7197 301.756 14.25C300.604 13.7652 299.188 13.5228 297.506 13.5228H291.96V51H280.71ZM306.915 29.7274L318.506 51H306.233L294.869 29.7274H306.915ZM362.699 4.45459V51H353.153L334.631 24.1364H334.335V51H323.085V4.45459H332.767L351.085 31.2727H351.472V4.45459H362.699ZM369.773 51V4.45459H402.227V13.591H381.023V23.1364H400.568V32.2956H381.023V41.8637H402.227V51H369.773ZM406.955 4.45459H419.523L429.364 23.9319H429.773L439.614 4.45459H452.182L435.159 35.4545V51H423.977V35.4545L406.955 4.45459Z" fill="url(#paint0_linear_48_356)"/>
<mask id="mask0_48_356" style="mask-type:alpha" maskUnits="userSpaceOnUse" x="143" y="-16" width="121" height="84">
<path d="M179.5 56C172.5 59 159 67.5 148 67.5C137 67.5 148 -11.4286 148 -11.4286L264 -16V56C264 56 244.5 67.5 220.5 67.5C196.5 67.5 186.5 53 179.5 56Z" fill="#D9D9D9"/>
</mask>
<g mask="url(#mask0_48_356)">
<path d="M204 99C227.196 99 246 80.196 246 57C246 33.804 227.196 15 204 15C180.804 15 162 33.804 162 57C162 80.196 180.804 99 204 99Z" fill="#FBD756"/>
</g>
<path d="M439.099 53.1042C435.656 52.3575 431.514 52.9983 429.843 54.5342C423.129 60.7052 409.417 64.538 394.059 64.538C378.701 64.538 364.99 60.7048 358.274 54.5342C357.116 53.4697 354.697 52.7937 352.044 52.7937C349.392 52.7937 346.973 53.47 345.814 54.5342C339.099 60.7052 325.386 64.538 310.03 64.538C294.673 64.538 280.96 60.7048 274.245 54.5342C273.086 53.4697 270.667 52.7937 268.015 52.7937C265.363 52.7937 262.943 53.47 261.785 54.5342C255.07 60.7052 241.357 64.538 226 64.538C210.643 64.538 196.931 60.7048 190.216 54.5342C189.057 53.4697 186.638 52.7937 183.986 52.7937C181.333 52.7937 178.914 53.47 177.755 54.5342C171.04 60.7052 157.328 64.538 141.971 64.538C126.614 64.538 112.902 60.7048 106.187 54.5342C105.028 53.4697 102.609 52.7937 99.9564 52.7937C97.3041 52.7937 94.8849 53.47 93.7261 54.5342C87.011 60.7052 73.2986 64.538 57.9417 64.538C42.584 64.538 28.8715 60.7048 22.1573 54.5342C20.4866 52.9987 16.3433 52.359 12.9018 53.1042C9.4612 53.8499 8.02613 55.6989 9.69769 57.2344C18.6116 65.4263 37.5489 70.7197 57.9417 70.7197C74.3938 70.7197 89.8973 67.275 99.9564 61.6422C110.015 67.275 125.518 70.7197 141.97 70.7197C158.422 70.7197 173.926 67.275 183.985 61.6422C194.043 67.275 209.547 70.7197 225.999 70.7197C242.451 70.7197 257.955 67.275 268.014 61.6422C278.072 67.275 293.577 70.7197 310.029 70.7197C326.481 70.7197 341.984 67.275 352.043 61.6422C362.101 67.275 377.605 70.7197 394.057 70.7197C414.45 70.7197 433.387 65.4263 442.301 57.2344C443.974 55.6989 442.539 53.8495 439.099 53.1042Z" fill="#0578D6"/>
<path d="M75.3809 102.767H56.915C56.6688 100.871 56.164 99.1601 55.4008 97.6336C54.6375 96.1071 53.628 94.8022 52.3724 93.7189C51.1167 92.6355 49.6271 91.8107 47.9036 91.2444C46.2047 90.6535 44.3212 90.3581 42.253 90.3581C38.5845 90.3581 35.4207 91.2567 32.7616 93.0541C30.1271 94.8514 28.0958 97.449 26.6678 100.847C25.2644 104.244 24.5627 108.356 24.5627 113.182C24.5627 118.205 25.2767 122.415 26.7047 125.812C28.1574 129.186 30.1886 131.734 32.7985 133.457C35.433 135.156 38.5475 136.006 42.1422 136.006C44.1612 136.006 45.9955 135.747 47.6451 135.23C49.3193 134.713 50.7843 133.962 52.04 132.977C53.3203 131.968 54.3667 130.749 55.1792 129.321C56.0163 127.868 56.5949 126.231 56.915 124.409L75.3809 124.52C75.0608 127.868 74.0883 131.168 72.4633 134.418C70.8629 137.668 68.6593 140.634 65.8525 143.318C63.0457 145.977 59.6233 148.095 55.5854 149.67C51.5722 151.246 46.968 152.034 41.7729 152.034C34.9282 152.034 28.7975 150.532 23.3809 147.528C17.9888 144.5 13.7294 140.093 10.6025 134.307C7.47556 128.521 5.91211 121.479 5.91211 113.182C5.91211 104.86 7.50018 97.806 10.6763 92.02C13.8525 86.234 18.1489 81.8391 23.5655 78.8353C28.9822 75.8315 35.0513 74.3296 41.7729 74.3296C46.3525 74.3296 50.5873 74.9698 54.4775 76.2501C58.3676 77.5058 61.79 79.3524 64.7445 81.7899C67.6991 84.2028 70.0996 87.1696 71.9462 90.6904C73.7928 94.2113 74.9377 98.2368 75.3809 102.767ZM85.8418 151V75.3637H117.086C122.749 75.3637 127.636 76.3855 131.748 78.4291C135.884 80.448 139.073 83.3533 141.313 87.145C143.554 90.912 144.674 95.3808 144.674 100.551C144.674 105.795 143.529 110.252 141.239 113.92C138.95 117.564 135.7 120.347 131.489 122.267C127.279 124.163 122.293 125.111 116.532 125.111H96.7736V110.707H113.134C115.892 110.707 118.194 110.35 120.04 109.636C121.912 108.898 123.327 107.79 124.288 106.312C125.248 104.811 125.728 102.89 125.728 100.551C125.728 98.2122 125.248 96.2795 124.288 94.7529C123.327 93.2018 121.912 92.0446 120.04 91.2813C118.169 90.4935 115.867 90.0995 113.134 90.0995H104.123V151H85.8418ZM128.424 116.432L147.259 151H127.316L108.85 116.432H128.424ZM200.46 75.3637H218.704V124.151C218.704 129.789 217.362 134.701 214.678 138.886C211.995 143.047 208.252 146.273 203.451 148.562C198.65 150.828 193.073 151.96 186.721 151.96C180.295 151.96 174.681 150.828 169.88 148.562C165.079 146.273 161.349 143.047 158.69 138.886C156.031 134.701 154.701 129.789 154.701 124.151V75.3637H172.982V122.562C172.982 125.172 173.549 127.499 174.681 129.543C175.838 131.586 177.451 133.187 179.519 134.344C181.587 135.501 183.988 136.08 186.721 136.08C189.454 136.08 191.842 135.501 193.886 134.344C195.954 133.187 197.567 131.586 198.724 129.543C199.881 127.499 200.46 125.172 200.46 122.562V75.3637ZM248.443 75.3637V151H230.162V75.3637H248.443ZM300.803 98.0399C300.557 95.3315 299.461 93.2264 297.516 91.7245C295.596 90.198 292.851 89.4348 289.281 89.4348C286.917 89.4348 284.947 89.7425 283.371 90.3581C281.796 90.9736 280.614 91.823 279.826 92.9063C279.038 93.9651 278.632 95.1838 278.607 96.5626C278.558 97.6952 278.78 98.6923 279.272 99.5541C279.789 100.416 280.528 101.179 281.488 101.844C282.473 102.484 283.655 103.05 285.033 103.543C286.412 104.035 287.963 104.466 289.687 104.835L296.187 106.312C299.929 107.125 303.228 108.208 306.085 109.562C308.965 110.917 311.378 112.529 313.323 114.401C315.293 116.272 316.782 118.426 317.792 120.864C318.801 123.301 319.318 126.034 319.343 129.062C319.318 133.839 318.112 137.938 315.724 141.361C313.335 144.783 309.901 147.405 305.42 149.227C300.963 151.049 295.584 151.96 289.281 151.96C282.953 151.96 277.438 151.012 272.735 149.116C268.032 147.221 264.376 144.34 261.766 140.474C259.156 136.609 257.815 131.722 257.741 125.812H275.246C275.394 128.25 276.047 130.281 277.204 131.906C278.361 133.531 279.949 134.762 281.968 135.599C284.012 136.437 286.375 136.855 289.059 136.855C291.521 136.855 293.614 136.523 295.337 135.858C297.085 135.193 298.427 134.27 299.363 133.088C300.299 131.906 300.779 130.552 300.803 129.026C300.779 127.598 300.335 126.379 299.474 125.369C298.612 124.335 297.282 123.449 295.485 122.71C293.712 121.947 291.447 121.245 288.69 120.605L280.786 118.759C274.237 117.257 269.079 114.831 265.312 111.483C261.545 108.11 259.674 103.555 259.698 97.8183C259.674 93.1403 260.929 89.0408 263.465 85.52C266.001 81.9992 269.51 79.2539 273.991 77.2842C278.472 75.3145 283.581 74.3296 289.317 74.3296C295.177 74.3296 300.262 75.3268 304.57 77.3211C308.904 79.2908 312.264 82.0607 314.653 85.6308C317.041 89.2009 318.26 93.3372 318.309 98.0399H300.803ZM328.576 151V75.3637H381.315V90.2103H346.857V105.722H378.619V120.605H346.857V136.153H381.315V151H328.576ZM433.647 98.0399C433.401 95.3315 432.305 93.2264 430.36 91.7245C428.44 90.198 425.694 89.4348 422.124 89.4348C419.761 89.4348 417.791 89.7425 416.215 90.3581C414.639 90.9736 413.458 91.823 412.67 92.9063C411.882 93.9651 411.476 95.1838 411.451 96.5626C411.402 97.6952 411.623 98.6923 412.116 99.5541C412.633 100.416 413.371 101.179 414.332 101.844C415.317 102.484 416.498 103.05 417.877 103.543C419.256 104.035 420.807 104.466 422.531 104.835L429.031 106.312C432.773 107.125 436.072 108.208 438.928 109.562C441.809 110.917 444.222 112.529 446.167 114.401C448.137 116.272 449.626 118.426 450.636 120.864C451.645 123.301 452.162 126.034 452.187 129.062C452.162 133.839 450.956 137.938 448.567 141.361C446.179 144.783 442.745 147.405 438.263 149.227C433.807 151.049 428.427 151.96 422.124 151.96C415.797 151.96 410.281 151.012 405.579 149.116C400.876 147.221 397.22 144.34 394.61 140.474C392 136.609 390.658 131.722 390.585 125.812H408.09C408.238 128.25 408.89 130.281 410.048 131.906C411.205 133.531 412.793 134.762 414.812 135.599C416.855 136.437 419.219 136.855 421.903 136.855C424.365 136.855 426.458 136.523 428.181 135.858C429.929 135.193 431.271 134.27 432.207 133.088C433.142 131.906 433.622 130.552 433.647 129.026C433.622 127.598 433.179 126.379 432.317 125.369C431.456 124.335 430.126 123.449 428.329 122.71C426.556 121.947 424.291 121.245 421.533 120.605L413.63 118.759C407.081 117.257 401.923 114.831 398.156 111.483C394.388 108.11 392.517 103.555 392.542 97.8183C392.517 93.1403 393.773 89.0408 396.309 85.52C398.845 81.9992 402.353 79.2539 406.835 77.2842C411.316 75.3145 416.424 74.3296 422.161 74.3296C428.021 74.3296 433.105 75.3268 437.414 77.3211C441.747 79.2908 445.108 82.0607 447.496 85.6308C449.885 89.2009 451.103 93.3372 451.153 98.0399H433.647Z" fill="#0578D6"/>
</g>
<defs>
<linearGradient id="paint0_linear_48_356" x1="6.99976" y1="27.5001" x2="454" y2="27.5001" gradientUnits="userSpaceOnUse">
<stop stop-color="#FF7233"/>
<stop offset="1" stop-color="#E93AB5"/>
</linearGradient>
<clipPath id="clip0_48_356">
<rect width="459" height="159" fill="white"/>
</clipPath>
</defs>
</svg>
