<svg width="459" height="159" viewBox="0 0 459 159" fill="none" xmlns="http://www.w3.org/2000/svg">
<path d="M10.5225 51V4.45459H21.7725V41.8637H41.1362V51H10.5225ZM58.21 4.45459V51H46.96V4.45459H58.21ZM65.2725 51V4.45459H97.0453V13.591H76.5225V23.1364H95.0225V32.2956H76.5225V51H65.2725ZM102.71 51V4.45459H135.165V13.591H113.96V23.1364H133.506V32.2956H113.96V41.8637H135.165V51H102.71ZM161.119 4.45459H172.21V36.6364C172.195 39.6515 171.475 42.288 170.051 44.5456C168.627 46.788 166.657 48.5304 164.142 49.7728C161.642 51.0153 158.748 51.6364 155.46 51.6364C152.551 51.6364 149.907 51.1289 147.528 50.1137C145.165 49.0986 143.278 47.5227 141.869 45.3864C140.475 43.25 139.786 40.5153 139.801 37.1819H151.006C151.051 38.3789 151.278 39.4015 151.688 40.25C152.112 41.0833 152.695 41.7121 153.438 42.1364C154.18 42.5606 155.066 42.7728 156.097 42.7728C157.172 42.7728 158.081 42.5456 158.824 42.091C159.566 41.6213 160.127 40.9319 160.506 40.0228C160.9 39.1137 161.104 37.9848 161.119 36.6364V4.45459ZM262.432 4.45459H273.659V34.4773C273.659 37.947 272.833 40.9698 271.182 43.5456C269.53 46.1062 267.227 48.0909 264.273 49.5C261.318 50.8939 257.886 51.591 253.977 51.591C250.023 51.591 246.568 50.8939 243.614 49.5C240.659 48.0909 238.364 46.1062 236.727 43.5456C235.091 40.9698 234.273 37.947 234.273 34.4773V4.45459H245.523V33.5C245.523 35.1061 245.871 36.538 246.568 37.7956C247.28 39.0531 248.273 40.0379 249.545 40.75C250.818 41.4621 252.295 41.8182 253.977 41.8182C255.659 41.8182 257.129 41.4621 258.386 40.75C259.659 40.0379 260.652 39.0531 261.364 37.7956C262.076 36.538 262.432 35.1061 262.432 33.5V4.45459ZM280.71 51V4.45459H299.938C303.422 4.45459 306.43 5.08338 308.96 6.34096C311.506 7.58338 313.468 9.37126 314.847 11.7046C316.225 14.0228 316.915 16.7727 316.915 19.9545C316.915 23.1818 316.21 25.9243 314.801 28.1819C313.392 30.4243 311.392 32.1364 308.801 33.3182C306.21 34.4848 303.142 35.0682 299.597 35.0682H287.438V26.2045H297.506C299.203 26.2045 300.619 25.9848 301.756 25.5455C302.907 25.0909 303.778 24.4091 304.369 23.5C304.96 22.5758 305.256 21.3939 305.256 19.9545C305.256 18.5151 304.96 17.3258 304.369 16.3864C303.778 15.4318 302.907 14.7197 301.756 14.25C300.604 13.7652 299.188 13.5228 297.506 13.5228H291.96V51H280.71ZM306.915 29.7274L318.506 51H306.233L294.869 29.7274H306.915ZM362.699 4.45459V51H353.153L334.631 24.1364H334.335V51H323.085V4.45459H332.767L351.085 31.2727H351.472V4.45459H362.699ZM369.773 51V4.45459H402.227V13.591H381.023V23.1364H400.568V32.2956H381.023V41.8637H402.227V51H369.773ZM406.955 4.45459H419.523L429.364 23.9319H429.773L439.614 4.45459H452.182L435.159 35.4545V51H423.977V35.4545L406.955 4.45459Z" fill="url(#paint0_linear_204_342)"/>
<path d="M204 99C227.196 99 246 80.196 246 57C246 33.804 227.196 15 204 15C180.804 15 162 33.804 162 57C162 80.196 180.804 99 204 99Z" fill="#FBD756"/>
<defs>
<linearGradient id="paint0_linear_204_342" x1="6.99976" y1="27.5001" x2="454" y2="27.5001" gradientUnits="userSpaceOnUse">
<stop stop-color="#FF7233"/>
<stop offset="1" stop-color="#E93AB5"/>
</linearGradient>
</defs>
</svg>
