<svg width="443" height="84" viewBox="0 0 443 84" fill="none" xmlns="http://www.w3.org/2000/svg">
<g clip-path="url(#clip0_177_350)">
<path d="M0.522461 47V0.45459H11.7725V37.8637H31.1362V47H0.522461ZM48.21 0.45459V47H36.96V0.45459H48.21ZM55.2725 47V0.45459H87.0453V9.59095H66.5225V19.1364H85.0225V28.2956H66.5225V47H55.2725ZM92.7098 47V0.45459H125.165V9.59095H103.96V19.1364H123.506V28.2956H103.96V37.8637H125.165V47H92.7098ZM151.119 0.45459H162.21V32.6364C162.195 35.6515 161.475 38.288 160.051 40.5456C158.627 42.788 156.657 44.5304 154.142 45.7728C151.642 47.0153 148.748 47.6364 145.46 47.6364C142.551 47.6364 139.907 47.1289 137.528 46.1137C135.165 45.0986 133.278 43.5227 131.869 41.3864C130.475 39.25 129.786 36.5153 129.801 33.1819H141.006C141.051 34.3789 141.278 35.4015 141.688 36.25C142.112 37.0833 142.695 37.7121 143.438 38.1364C144.18 38.5606 145.066 38.7728 146.097 38.7728C147.172 38.7728 148.081 38.5456 148.824 38.091C149.566 37.6213 150.127 36.9319 150.506 36.0228C150.9 35.1137 151.104 33.9848 151.119 32.6364V0.45459ZM252.432 0.45459H263.659V30.4773C263.659 33.947 262.833 36.9698 261.182 39.5456C259.53 42.1062 257.227 44.0909 254.273 45.5C251.318 46.8939 247.886 47.591 243.977 47.591C240.023 47.591 236.568 46.8939 233.614 45.5C230.659 44.0909 228.364 42.1062 226.727 39.5456C225.091 36.9698 224.273 33.947 224.273 30.4773V0.45459H235.523V29.5C235.523 31.1061 235.871 32.538 236.568 33.7956C237.28 35.0531 238.273 36.0379 239.545 36.75C240.818 37.4621 242.295 37.8182 243.977 37.8182C245.659 37.8182 247.129 37.4621 248.386 36.75C249.659 36.0379 250.652 35.0531 251.364 33.7956C252.076 32.538 252.432 31.1061 252.432 29.5V0.45459ZM270.71 47V0.45459H289.938C293.422 0.45459 296.43 1.08338 298.96 2.34096C301.506 3.58338 303.468 5.37126 304.847 7.70455C306.225 10.0228 306.915 12.7727 306.915 15.9545C306.915 19.1818 306.21 21.9243 304.801 24.1819C303.392 26.4243 301.392 28.1364 298.801 29.3182C296.21 30.4848 293.142 31.0682 289.597 31.0682H277.438V22.2045H287.506C289.203 22.2045 290.619 21.9848 291.756 21.5455C292.907 21.0909 293.778 20.4091 294.369 19.5C294.96 18.5758 295.256 17.3939 295.256 15.9545C295.256 14.5151 294.96 13.3258 294.369 12.3864C293.778 11.4318 292.907 10.7197 291.756 10.25C290.604 9.76525 289.188 9.52275 287.506 9.52275H281.96V47H270.71ZM296.915 25.7274L308.506 47H296.233L284.869 25.7274H296.915ZM352.699 0.45459V47H343.153L324.631 20.1364H324.335V47H313.085V0.45459H322.767L341.085 27.2727H341.472V0.45459H352.699ZM359.773 47V0.45459H392.227V9.59095H371.023V19.1364H390.568V28.2956H371.023V37.8637H392.227V47H359.773ZM396.955 0.45459H409.523L419.364 19.9319H419.773L429.614 0.45459H442.182L425.159 31.4545V47H413.977V31.4545L396.955 0.45459Z" fill="url(#paint0_linear_177_350)"/>
<path d="M194 95C217.196 95 236 76.196 236 53C236 29.804 217.196 11 194 11C170.804 11 152 29.804 152 53C152 76.196 170.804 95 194 95Z" fill="#FBD756"/>
</g>
<defs>
<linearGradient id="paint0_linear_177_350" x1="-3.00024" y1="23.5001" x2="444" y2="23.5001" gradientUnits="userSpaceOnUse">
<stop stop-color="#FF7233"/>
<stop offset="1" stop-color="#E93AB5"/>
</linearGradient>
<clipPath id="clip0_177_350">
<rect width="443" height="84" fill="white"/>
</clipPath>
</defs>
</svg>
