<svg width="459" height="159" viewBox="0 0 459 159" fill="none" xmlns="http://www.w3.org/2000/svg">
<path d="M10.5227 51V4.45454H21.7727V41.8636H41.1364V51H10.5227ZM58.2102 4.45454V51H46.9602V4.45454H58.2102ZM65.2727 51V4.45454H97.0455V13.5909H76.5227V23.1364H95.0227V32.2955H76.5227V51H65.2727ZM102.71 51V4.45454H135.165V13.5909H113.96V23.1364H133.506V32.2955H113.96V41.8636H135.165V51H102.71ZM161.119 4.45454H172.21V36.6364C172.195 39.6515 171.475 42.2879 170.051 44.5455C168.627 46.7879 166.657 48.5303 164.142 49.7727C161.642 51.0152 158.748 51.6364 155.46 51.6364C152.551 51.6364 149.907 51.1288 147.528 50.1136C145.165 49.0985 143.278 47.5227 141.869 45.3864C140.475 43.25 139.786 40.5152 139.801 37.1818H151.006C151.051 38.3788 151.278 39.4015 151.688 40.25C152.112 41.0833 152.695 41.7121 153.438 42.1364C154.18 42.5606 155.066 42.7727 156.097 42.7727C157.172 42.7727 158.081 42.5455 158.824 42.0909C159.566 41.6212 160.127 40.9318 160.506 40.0227C160.9 39.1136 161.104 37.9848 161.119 36.6364V4.45454ZM262.432 4.45454H273.659V34.4773C273.659 37.947 272.833 40.9697 271.182 43.5455C269.53 46.1061 267.227 48.0909 264.273 49.5C261.318 50.8939 257.886 51.5909 253.977 51.5909C250.023 51.5909 246.568 50.8939 243.614 49.5C240.659 48.0909 238.364 46.1061 236.727 43.5455C235.091 40.9697 234.273 37.947 234.273 34.4773V4.45454H245.523V33.5C245.523 35.1061 245.871 36.5379 246.568 37.7955C247.28 39.053 248.273 40.0379 249.545 40.75C250.818 41.4621 252.295 41.8182 253.977 41.8182C255.659 41.8182 257.129 41.4621 258.386 40.75C259.659 40.0379 260.652 39.053 261.364 37.7955C262.076 36.5379 262.432 35.1061 262.432 33.5V4.45454ZM280.71 51V4.45454H299.938C303.422 4.45454 306.43 5.08333 308.96 6.34091C311.506 7.58333 313.468 9.37121 314.847 11.7045C316.225 14.0227 316.915 16.7727 316.915 19.9545C316.915 23.1818 316.21 25.9242 314.801 28.1818C313.392 30.4242 311.392 32.1364 308.801 33.3182C306.21 34.4848 303.142 35.0682 299.597 35.0682H287.438V26.2045H297.506C299.203 26.2045 300.619 25.9848 301.756 25.5455C302.907 25.0909 303.778 24.4091 304.369 23.5C304.96 22.5758 305.256 21.3939 305.256 19.9545C305.256 18.5151 304.96 17.3258 304.369 16.3864C303.778 15.4318 302.907 14.7197 301.756 14.25C300.604 13.7652 299.188 13.5227 297.506 13.5227H291.96V51H280.71ZM306.915 29.7273L318.506 51H306.233L294.869 29.7273H306.915ZM362.699 4.45454V51H353.153L334.631 24.1364H334.335V51H323.085V4.45454H332.767L351.085 31.2727H351.472V4.45454H362.699ZM369.773 51V4.45454H402.227V13.5909H381.023V23.1364H400.568V32.2955H381.023V41.8636H402.227V51H369.773ZM406.955 4.45454H419.523L429.364 23.9318H429.773L439.614 4.45454H452.182L435.159 35.4545V51H423.977V35.4545L406.955 4.45454Z" fill="url(#paint0_linear_40_18)"/>
<mask id="mask0_40_18" style="mask-type:alpha" maskUnits="userSpaceOnUse" x="143" y="-16" width="121" height="84">
<path d="M179.5 56C172.5 59 159 67.5 148 67.5C137 67.5 148 -11.4286 148 -11.4286L264 -16V56C264 56 244.5 67.5 220.5 67.5C196.5 67.5 186.5 53 179.5 56Z" fill="#D9D9D9"/>
</mask>
<g mask="url(#mask0_40_18)">
<circle cx="204" cy="57" r="42" fill="#FFED86"/>
</g>
<path d="M439.099 53.1042C435.656 52.3575 431.514 52.9983 429.843 54.5342C423.129 60.7052 409.417 64.538 394.059 64.538C378.701 64.538 364.99 60.7048 358.274 54.5342C357.116 53.4697 354.697 52.7937 352.044 52.7937C349.392 52.7937 346.973 53.47 345.814 54.5342C339.099 60.7052 325.386 64.538 310.03 64.538C294.673 64.538 280.96 60.7048 274.245 54.5342C273.086 53.4697 270.667 52.7937 268.015 52.7937C265.363 52.7937 262.943 53.47 261.785 54.5342C255.07 60.7052 241.357 64.538 226 64.538C210.643 64.538 196.931 60.7048 190.216 54.5342C189.057 53.4697 186.638 52.7937 183.986 52.7937C181.333 52.7937 178.914 53.47 177.755 54.5342C171.04 60.7052 157.328 64.538 141.971 64.538C126.614 64.538 112.902 60.7048 106.187 54.5342C105.028 53.4697 102.609 52.7937 99.9564 52.7937C97.3041 52.7937 94.8849 53.47 93.7261 54.5342C87.011 60.7052 73.2986 64.538 57.9417 64.538C42.584 64.538 28.8715 60.7048 22.1573 54.5342C20.4866 52.9987 16.3433 52.359 12.9018 53.1042C9.4612 53.8499 8.02613 55.6989 9.69769 57.2344C18.6116 65.4263 37.5489 70.7197 57.9417 70.7197C74.3938 70.7197 89.8973 67.275 99.9564 61.6422C110.015 67.275 125.518 70.7197 141.97 70.7197C158.422 70.7197 173.926 67.275 183.985 61.6422C194.043 67.275 209.547 70.7197 225.999 70.7197C242.451 70.7197 257.955 67.275 268.014 61.6422C278.072 67.275 293.577 70.7197 310.029 70.7197C326.481 70.7197 341.984 67.275 352.043 61.6422C362.101 67.275 377.605 70.7197 394.057 70.7197C414.45 70.7197 433.387 65.4263 442.301 57.2344C443.974 55.6989 442.539 53.8495 439.099 53.1042Z" fill="#A2DCE7"/>
<path d="M75.3807 102.767H56.9148C56.6686 100.871 56.1638 99.16 55.4006 97.6335C54.6373 96.107 53.6278 94.8021 52.3722 93.7188C51.1165 92.6354 49.6269 91.8106 47.9034 91.2443C46.2045 90.6534 44.321 90.358 42.2528 90.358C38.5843 90.358 35.4205 91.2566 32.7614 93.054C30.1269 94.8513 28.0956 97.4489 26.6676 100.847C25.2642 104.244 24.5625 108.356 24.5625 113.182C24.5625 118.205 25.2765 122.415 26.7045 125.812C28.1572 129.186 30.1884 131.734 32.7983 133.457C35.4328 135.156 38.5473 136.006 42.142 136.006C44.161 136.006 45.9953 135.747 47.6449 135.23C49.3191 134.713 50.7841 133.962 52.0398 132.977C53.3201 131.968 54.3665 130.749 55.179 129.321C56.0161 127.868 56.5947 126.231 56.9148 124.409L75.3807 124.52C75.0606 127.868 74.0881 131.168 72.4631 134.418C70.8627 137.668 68.6591 140.634 65.8523 143.318C63.0455 145.977 59.6231 148.095 55.5852 149.67C51.572 151.246 46.9678 152.034 41.7727 152.034C34.928 152.034 28.7973 150.532 23.3807 147.528C17.9886 144.5 13.7292 140.093 10.6023 134.307C7.47538 128.521 5.91193 121.479 5.91193 113.182C5.91193 104.86 7.5 97.8059 10.6761 92.0199C13.8523 86.2339 18.1487 81.839 23.5653 78.8352C28.982 75.8314 35.0511 74.3295 41.7727 74.3295C46.3523 74.3295 50.5871 74.9697 54.4773 76.25C58.3674 77.5057 61.7898 79.3523 64.7443 81.7898C67.6989 84.2027 70.0994 87.1695 71.946 90.6903C73.7926 94.2112 74.9375 98.2367 75.3807 102.767ZM85.8416 151V75.3636H117.086C122.749 75.3636 127.636 76.3854 131.748 78.429C135.884 80.4479 139.073 83.3532 141.313 87.1449C143.554 90.9119 144.674 95.3807 144.674 100.551C144.674 105.795 143.529 110.252 141.239 113.92C138.95 117.564 135.7 120.347 131.489 122.267C127.279 124.163 122.293 125.111 116.532 125.111H96.7734V110.707H113.134C115.892 110.707 118.194 110.35 120.04 109.636C121.912 108.898 123.327 107.79 124.288 106.312C125.248 104.811 125.728 102.89 125.728 100.551C125.728 98.2121 125.248 96.2794 124.288 94.7528C123.327 93.2017 121.912 92.0445 120.04 91.2812C118.169 90.4934 115.867 90.0994 113.134 90.0994H104.123V151H85.8416ZM128.424 116.432L147.259 151H127.316L108.85 116.432H128.424ZM200.46 75.3636H218.704V124.151C218.704 129.789 217.362 134.701 214.678 138.886C211.995 143.047 208.252 146.273 203.451 148.562C198.65 150.828 193.073 151.96 186.721 151.96C180.295 151.96 174.681 150.828 169.88 148.562C165.079 146.273 161.349 143.047 158.69 138.886C156.031 134.701 154.701 129.789 154.701 124.151V75.3636H172.982V122.562C172.982 125.172 173.549 127.499 174.681 129.543C175.838 131.586 177.451 133.187 179.519 134.344C181.587 135.501 183.988 136.08 186.721 136.08C189.454 136.08 191.842 135.501 193.886 134.344C195.954 133.187 197.567 131.586 198.724 129.543C199.881 127.499 200.46 125.172 200.46 122.562V75.3636ZM248.443 75.3636V151H230.162V75.3636H248.443ZM300.803 98.0398C300.557 95.3314 299.461 93.2263 297.516 91.7244C295.596 90.1979 292.851 89.4347 289.281 89.4347C286.917 89.4347 284.947 89.7424 283.371 90.358C281.796 90.9735 280.614 91.8229 279.826 92.9062C279.038 93.965 278.632 95.1837 278.607 96.5625C278.558 97.6951 278.78 98.6922 279.272 99.554C279.789 100.416 280.528 101.179 281.488 101.844C282.473 102.484 283.655 103.05 285.033 103.543C286.412 104.035 287.963 104.466 289.687 104.835L296.187 106.312C299.929 107.125 303.228 108.208 306.085 109.562C308.965 110.917 311.378 112.529 313.323 114.401C315.293 116.272 316.782 118.426 317.792 120.864C318.801 123.301 319.318 126.034 319.343 129.062C319.318 133.839 318.112 137.938 315.724 141.361C313.335 144.783 309.901 147.405 305.42 149.227C300.963 151.049 295.584 151.96 289.281 151.96C282.953 151.96 277.438 151.012 272.735 149.116C268.032 147.221 264.376 144.34 261.766 140.474C259.156 136.609 257.815 131.722 257.741 125.812H275.246C275.394 128.25 276.047 130.281 277.204 131.906C278.361 133.531 279.949 134.762 281.968 135.599C284.012 136.437 286.375 136.855 289.059 136.855C291.521 136.855 293.614 136.523 295.337 135.858C297.085 135.193 298.427 134.27 299.363 133.088C300.299 131.906 300.779 130.552 300.803 129.026C300.779 127.598 300.335 126.379 299.474 125.369C298.612 124.335 297.282 123.449 295.485 122.71C293.712 121.947 291.447 121.245 288.69 120.605L280.786 118.759C274.237 117.257 269.079 114.831 265.312 111.483C261.545 108.11 259.674 103.555 259.698 97.8182C259.674 93.1402 260.929 89.0407 263.465 85.5199C266.001 81.9991 269.51 79.2538 273.991 77.2841C278.472 75.3144 283.581 74.3295 289.317 74.3295C295.177 74.3295 300.262 75.3267 304.57 77.321C308.904 79.2907 312.264 82.0606 314.653 85.6307C317.041 89.2008 318.26 93.3371 318.309 98.0398H300.803ZM328.576 151V75.3636H381.315V90.2102H346.857V105.722H378.619V120.605H346.857V136.153H381.315V151H328.576ZM433.647 98.0398C433.401 95.3314 432.305 93.2263 430.36 91.7244C428.44 90.1979 425.694 89.4347 422.124 89.4347C419.761 89.4347 417.791 89.7424 416.215 90.358C414.639 90.9735 413.458 91.8229 412.67 92.9062C411.882 93.965 411.476 95.1837 411.451 96.5625C411.402 97.6951 411.623 98.6922 412.116 99.554C412.633 100.416 413.371 101.179 414.332 101.844C415.317 102.484 416.498 103.05 417.877 103.543C419.256 104.035 420.807 104.466 422.531 104.835L429.031 106.312C432.773 107.125 436.072 108.208 438.928 109.562C441.809 110.917 444.222 112.529 446.167 114.401C448.137 116.272 449.626 118.426 450.636 120.864C451.645 123.301 452.162 126.034 452.187 129.062C452.162 133.839 450.956 137.938 448.567 141.361C446.179 144.783 442.745 147.405 438.263 149.227C433.807 151.049 428.427 151.96 422.124 151.96C415.797 151.96 410.281 151.012 405.579 149.116C400.876 147.221 397.22 144.34 394.61 140.474C392 136.609 390.658 131.722 390.585 125.812H408.09C408.238 128.25 408.89 130.281 410.048 131.906C411.205 133.531 412.793 134.762 414.812 135.599C416.855 136.437 419.219 136.855 421.903 136.855C424.365 136.855 426.458 136.523 428.181 135.858C429.929 135.193 431.271 134.27 432.207 133.088C433.142 131.906 433.622 130.552 433.647 129.026C433.622 127.598 433.179 126.379 432.317 125.369C431.456 124.335 430.126 123.449 428.329 122.71C426.556 121.947 424.291 121.245 421.533 120.605L413.63 118.759C407.081 117.257 401.923 114.831 398.156 111.483C394.388 108.11 392.517 103.555 392.542 97.8182C392.517 93.1402 393.773 89.0407 396.309 85.5199C398.845 81.9991 402.353 79.2538 406.835 77.2841C411.316 75.3144 416.424 74.3295 422.161 74.3295C428.021 74.3295 433.105 75.3267 437.414 77.321C441.747 79.2907 445.108 82.0606 447.496 85.6307C449.885 89.2008 451.103 93.3371 451.153 98.0398H433.647Z" fill="#A2DCE7"/>
<defs>
<linearGradient id="paint0_linear_40_18" x1="7" y1="27.5" x2="454" y2="27.5" gradientUnits="userSpaceOnUse">
<stop stop-color="#FFB067"/>
<stop offset="1" stop-color="#F8CCDC" stop-opacity="0.8"/>
</linearGradient>
</defs>
</svg>
