<svg width="448" height="79" viewBox="0 0 448 79" fill="none" xmlns="http://www.w3.org/2000/svg">
<g clip-path="url(#clip0_178_358)">
<path d="M70.3809 28.7671H51.915C51.6688 26.8711 51.164 25.1601 50.4008 23.6336C49.6375 22.1071 48.628 20.8022 47.3724 19.7189C46.1167 18.6355 44.6271 17.8107 42.9036 17.2444C41.2047 16.6535 39.3212 16.3581 37.253 16.3581C33.5845 16.3581 30.4207 17.2567 27.7616 19.0541C25.1271 20.8514 23.0958 23.449 21.6678 26.8471C20.2644 30.2441 19.5627 34.3561 19.5627 39.1821C19.5627 44.2051 20.2767 48.4151 21.7047 51.8121C23.1574 55.1861 25.1886 57.7341 27.7985 59.4571C30.433 61.1561 33.5475 62.0061 37.1422 62.0061C39.1612 62.0061 40.9955 61.7471 42.6451 61.2301C44.3193 60.7131 45.7843 59.9621 47.04 58.9771C48.3203 57.9681 49.3667 56.7491 50.1792 55.3211C51.0163 53.8681 51.5949 52.2311 51.915 50.4091L70.3809 50.5201C70.0608 53.8681 69.0883 57.1681 67.4633 60.4181C65.8629 63.6681 63.6593 66.6341 60.8525 69.3181C58.0457 71.9771 54.6233 74.0951 50.5854 75.6701C46.5722 77.2461 41.968 78.0341 36.7729 78.0341C29.9282 78.0341 23.7975 76.5321 18.3809 73.5281C12.9888 70.5001 8.72938 66.0931 5.60248 60.3071C2.47556 54.5211 0.912109 47.4791 0.912109 39.1821C0.912109 30.8601 2.50018 23.806 5.67628 18.02C8.85248 12.234 13.1489 7.83909 18.5655 4.83529C23.9822 1.83149 30.0513 0.32959 36.7729 0.32959C41.3525 0.32959 45.5873 0.969792 49.4775 2.25009C53.3676 3.50579 56.79 5.35239 59.7445 7.78989C62.6991 10.2028 65.0996 13.1696 66.9462 16.6904C68.7928 20.2113 69.9377 24.2368 70.3809 28.7671ZM80.8418 77.0001V1.36369H112.086C117.749 1.36369 122.636 2.38549 126.748 4.42909C130.884 6.44799 134.073 9.35329 136.313 13.145C138.554 16.912 139.674 21.3808 139.674 26.5511C139.674 31.7951 138.529 36.2521 136.239 39.9201C133.95 43.5641 130.7 46.3471 126.489 48.2671C122.279 50.1631 117.293 51.1111 111.532 51.1111H91.7736V36.7071H108.134C110.892 36.7071 113.194 36.3501 115.04 35.6361C116.912 34.8981 118.327 33.7901 119.288 32.3121C120.248 30.8111 120.728 28.8901 120.728 26.5511C120.728 24.2122 120.248 22.2795 119.288 20.7529C118.327 19.2018 116.912 18.0446 115.04 17.2813C113.169 16.4935 110.867 16.0995 108.134 16.0995H99.1232V77.0001H80.8418ZM123.424 42.4321L142.259 77.0001H122.316L103.85 42.4321H123.424ZM195.46 1.36369H213.704V50.1511C213.704 55.7891 212.362 60.7011 209.678 64.8861C206.995 69.0471 203.252 72.2731 198.451 74.5621C193.65 76.8281 188.073 77.9601 181.721 77.9601C175.295 77.9601 169.681 76.8281 164.88 74.5621C160.079 72.2731 156.349 69.0471 153.69 64.8861C151.031 60.7011 149.701 55.7891 149.701 50.1511V1.36369H167.982V48.5621C167.982 51.1721 168.549 53.4991 169.681 55.5431C170.838 57.5861 172.451 59.1871 174.519 60.3441C176.587 61.5011 178.988 62.0801 181.721 62.0801C184.454 62.0801 186.842 61.5011 188.886 60.3441C190.954 59.1871 192.567 57.5861 193.724 55.5431C194.881 53.4991 195.46 51.1721 195.46 48.5621V1.36369ZM243.443 1.36369V77.0001H225.162V1.36369H243.443ZM295.803 24.0399C295.557 21.3315 294.461 19.2264 292.516 17.7245C290.596 16.198 287.851 15.4348 284.281 15.4348C281.917 15.4348 279.947 15.7425 278.371 16.3581C276.796 16.9736 275.614 17.823 274.826 18.9063C274.038 19.9651 273.632 21.1838 273.607 22.5626C273.558 23.6952 273.78 24.6923 274.272 25.5541C274.789 26.4161 275.528 27.1791 276.488 27.8441C277.473 28.4841 278.655 29.0501 280.033 29.5431C281.412 30.0351 282.963 30.4661 284.687 30.8351L291.187 32.3121C294.929 33.1251 298.228 34.2081 301.085 35.5621C303.965 36.9171 306.378 38.5291 308.323 40.4011C310.293 42.2721 311.782 44.4261 312.792 46.8641C313.801 49.3011 314.318 52.0341 314.343 55.0621C314.318 59.8391 313.112 63.9381 310.724 67.3611C308.335 70.7831 304.901 73.4051 300.42 75.2271C295.963 77.0491 290.584 77.9601 284.281 77.9601C277.953 77.9601 272.438 77.0121 267.735 75.1161C263.032 73.2211 259.376 70.3401 256.766 66.4741C254.156 62.6091 252.815 57.7221 252.741 51.8121H270.246C270.394 54.2501 271.047 56.2811 272.204 57.9061C273.361 59.5311 274.949 60.7621 276.968 61.5991C279.012 62.4371 281.375 62.8551 284.059 62.8551C286.521 62.8551 288.614 62.5231 290.337 61.8581C292.085 61.1931 293.427 60.2701 294.363 59.0881C295.299 57.9061 295.779 56.5521 295.803 55.0261C295.779 53.5981 295.335 52.3791 294.474 51.3691C293.612 50.3351 292.282 49.4491 290.485 48.7101C288.712 47.9471 286.447 47.2451 283.69 46.6051L275.786 44.7591C269.237 43.2571 264.079 40.8311 260.312 37.4831C256.545 34.1101 254.674 29.5551 254.698 23.8183C254.674 19.1403 255.929 15.0408 258.465 11.52C261.001 7.99919 264.51 5.25389 268.991 3.28419C273.472 1.31449 278.581 0.32959 284.317 0.32959C290.177 0.32959 295.262 1.32679 299.57 3.32109C303.904 5.29079 307.264 8.06069 309.653 11.6308C312.041 15.2009 313.26 19.3372 313.309 24.0399H295.803ZM323.576 77.0001V1.36369H376.315V16.2103H341.857V31.7221H373.619V46.6051H341.857V62.1531H376.315V77.0001H323.576ZM428.647 24.0399C428.401 21.3315 427.305 19.2264 425.36 17.7245C423.44 16.198 420.694 15.4348 417.124 15.4348C414.761 15.4348 412.791 15.7425 411.215 16.3581C409.639 16.9736 408.458 17.823 407.67 18.9063C406.882 19.9651 406.476 21.1838 406.451 22.5626C406.402 23.6952 406.623 24.6923 407.116 25.5541C407.633 26.4161 408.371 27.1791 409.332 27.8441C410.317 28.4841 411.498 29.0501 412.877 29.5431C414.256 30.0351 415.807 30.4661 417.531 30.8351L424.031 32.3121C427.773 33.1251 431.072 34.2081 433.928 35.5621C436.809 36.9171 439.222 38.5291 441.167 40.4011C443.137 42.2721 444.626 44.4261 445.636 46.8641C446.645 49.3011 447.162 52.0341 447.187 55.0621C447.162 59.8391 445.956 63.9381 443.567 67.3611C441.179 70.7831 437.745 73.4051 433.263 75.2271C428.807 77.0491 423.427 77.9601 417.124 77.9601C410.797 77.9601 405.281 77.0121 400.579 75.1161C395.876 73.2211 392.22 70.3401 389.61 66.4741C387 62.6091 385.658 57.7221 385.585 51.8121H403.09C403.238 54.2501 403.89 56.2811 405.048 57.9061C406.205 59.5311 407.793 60.7621 409.812 61.5991C411.855 62.4371 414.219 62.8551 416.903 62.8551C419.365 62.8551 421.458 62.5231 423.181 61.8581C424.929 61.1931 426.271 60.2701 427.207 59.0881C428.142 57.9061 428.622 56.5521 428.647 55.0261C428.622 53.5981 428.179 52.3791 427.317 51.3691C426.456 50.3351 425.126 49.4491 423.329 48.7101C421.556 47.9471 419.291 47.2451 416.533 46.6051L408.63 44.7591C402.081 43.2571 396.923 40.8311 393.156 37.4831C389.388 34.1101 387.517 29.5551 387.542 23.8183C387.517 19.1403 388.773 15.0408 391.309 11.52C393.845 7.99919 397.353 5.25389 401.835 3.28419C406.316 1.31449 411.424 0.32959 417.161 0.32959C423.021 0.32959 428.105 1.32679 432.414 3.32109C436.747 5.29079 440.108 8.06069 442.496 11.6308C444.885 15.2009 446.103 19.3372 446.153 24.0399H428.647Z" fill="white"/>
</g>
<defs>
<clipPath id="clip0_178_358">
<rect width="448" height="79" fill="white"/>
</clipPath>
</defs>
</svg>
